<svg width="34" height="30" viewBox="0 0 34 30" fill="none" xmlns="http://www.w3.org/2000/svg">
<path fill-rule="evenodd" clip-rule="evenodd" d="M16.4479 0.0476074C17.2205 -0.0998195 17.8826 0.0951587 18.4344 0.632542C23.4167 5.02899 28.4226 9.3965 33.452 13.7351C34.1551 14.5357 34.1816 15.3546 33.5315 16.1918C32.4763 16.9837 31.5095 16.8798 30.6313 15.8798C30.6048 20.1694 30.5783 24.4589 30.5518 28.7484C30.407 29.2557 30.1024 29.6326 29.638 29.8793C26.9412 30.0077 24.2396 30.0336 21.5333 29.9573C20.9221 29.7215 20.538 29.2926 20.3811 28.6704C20.3547 26.7727 20.3281 24.8748 20.3017 22.9771C20.103 22.3661 19.6924 21.9632 19.0701 21.7682C17.6928 21.7162 16.3155 21.7162 14.9382 21.7682C14.3158 21.9632 13.9052 22.3661 13.7066 22.9771C13.6801 24.8748 13.6536 26.7727 13.6271 28.6704C13.4702 29.2926 13.0862 29.7215 12.475 29.9573C9.85286 30.0093 7.23073 30.0093 4.60859 29.9573C4.09069 29.8008 3.73313 29.4759 3.5359 28.9824C3.43092 24.6194 3.37796 20.2519 3.37699 15.8798C2.55833 16.8299 1.61807 16.973 0.556208 16.3088C-0.185403 15.4509 -0.185403 14.593 0.556208 13.7351C5.5857 9.3965 10.5916 5.02899 15.5739 0.632542C15.8429 0.397203 16.1343 0.202225 16.4479 0.0476074ZM16.9247 4.02516C20.3604 6.91583 23.7638 9.85345 27.1351 12.8382C27.1748 17.4396 27.1881 22.0411 27.1748 26.6426C26.0624 26.6426 24.95 26.6426 23.8376 26.6426C23.8697 25.1839 23.8299 23.7281 23.7184 22.2751C23.2675 20.5596 22.2213 19.3507 20.5798 18.6485C20.1442 18.4831 19.6939 18.3792 19.229 18.3366C17.7457 18.2845 16.2625 18.2845 14.7793 18.3366C12.9277 18.5751 11.5636 19.498 10.6872 21.1053C10.523 21.4845 10.3906 21.8745 10.2899 22.2751C10.1783 23.7281 10.1386 25.1839 10.1707 26.6426C9.05827 26.6426 7.94585 26.6426 6.83343 26.6426C6.82016 22.0411 6.83343 17.4396 6.87316 12.8382C10.2391 9.91101 13.5896 6.97331 16.9247 4.02516Z" fill="black"/>
</svg>
