<svg width="415" height="217" viewBox="0 0 415 217" fill="none" xmlns="http://www.w3.org/2000/svg">
<g filter="url(#filter0_f_1068_859)">
<rect x="50" y="50" width="315" height="117" fill="#C37B8F" fill-opacity="0.7"/>
</g>
<path d="M219.546 121.788C224.087 121.769 228.629 121.788 233.169 121.844C242.576 123.125 247.491 128.512 247.918 138.001C247.521 147.386 242.679 152.771 233.395 154.157C228.779 154.214 224.162 154.232 219.546 154.213V121.788ZM281.808 154.213C280.306 154.232 278.805 154.214 277.304 154.157C276.184 151.603 275.095 149.031 274.039 146.445C268.673 146.313 263.306 146.295 257.939 146.389C256.818 148.943 255.73 151.515 254.674 154.101C253.173 154.251 251.671 154.251 250.17 154.101C254.931 143.341 259.661 132.57 264.357 121.788H268.185C272.725 132.597 277.267 143.405 281.808 154.213ZM198.492 121.788C199.733 121.751 200.971 121.788 202.207 121.901C206.786 132.634 211.365 143.368 215.944 154.101C214.404 154.251 212.866 154.251 211.327 154.101C210.227 151.533 209.139 148.963 208.063 146.389C202.696 146.295 197.328 146.314 191.962 146.446C190.862 149.014 189.774 151.584 188.697 154.157C187.197 154.233 185.694 154.233 184.194 154.157C188.976 143.373 193.742 132.583 198.492 121.788ZM132.854 121.788C134.357 121.751 135.857 121.788 137.357 121.901C140.651 130.678 143.935 139.46 147.208 148.246C150.684 139.493 154.099 130.711 157.454 121.901C158.855 121.752 160.262 121.752 161.676 121.901C157.494 132.643 153.291 143.377 149.066 154.101C147.764 154.249 146.47 154.249 145.182 154.101C141.061 143.332 136.952 132.561 132.854 121.788ZM169.107 150.498H183.856V154.213H165.166V121.788H169.107V150.498ZM223.487 125.503V150.498C226.565 150.517 229.642 150.498 232.719 150.442C239.928 149.443 243.569 145.295 243.64 138.001C243.543 130.605 239.827 126.458 232.493 125.56C229.492 125.504 226.489 125.484 223.487 125.503ZM200.181 126.855C198.021 132.113 195.808 137.348 193.538 142.561C197.854 142.617 202.17 142.637 206.486 142.617C204.442 137.331 202.341 132.077 200.181 126.855ZM266.045 126.967C263.933 132.168 261.756 137.348 259.516 142.504C263.831 142.654 268.148 142.654 272.463 142.504C270.422 137.527 268.414 132.535 266.44 127.531C266.378 127.276 266.246 127.088 266.045 126.967ZM338.664 102.649C338.929 102.687 339.192 102.743 339.452 102.818C341.942 104.519 344.399 106.264 346.826 108.053C347.151 108.846 347.02 109.539 346.433 110.136C344.181 111.675 341.929 113.213 339.677 114.752C338.404 115.31 337.616 114.916 337.313 113.57C337.339 113.096 337.527 112.702 337.876 112.388C338.852 111.713 339.827 111.037 340.803 110.362C250.17 110.324 159.537 110.285 68.9035 110.248C68.2798 109.997 67.9785 109.529 68.0021 108.841C67.9696 108.097 68.3077 107.627 69.0158 107.434C159.574 107.397 250.133 107.359 340.691 107.322C339.847 106.693 338.983 106.093 338.101 105.52C336.917 104.275 337.105 103.317 338.664 102.649ZM133.304 62.0032C140.177 61.8828 145.375 64.7356 148.897 70.5608C151.009 74.9303 151.46 79.471 150.248 84.1838C147.895 91.3398 142.96 95.2984 135.443 96.0618C129.251 96.5008 124.203 94.3424 120.3 89.5881C117.366 85.2726 116.391 80.5435 117.372 75.4016C118.494 69.8904 121.59 65.9308 126.661 63.5237C128.8 62.6197 131.014 62.1124 133.304 62.0032ZM323.465 62.9045C327.405 62.8854 331.346 62.9049 335.286 62.9612C338.265 63.0895 340.761 64.2331 342.774 66.3948C344.61 69.3299 344.647 72.2945 342.886 75.2893C341.785 76.6887 340.378 77.6459 338.664 78.1604C343.187 79.0228 345.551 81.7438 345.757 86.3225C345.702 90.0154 343.976 92.5875 340.578 94.0354C339.019 94.6411 337.405 95.0161 335.737 95.1614C331.648 95.3179 327.557 95.3742 323.465 95.3303V62.9045ZM90.8576 66.5071H74.6457V77.0911H89.7326V80.8059H74.6457V95.3303H70.7053V62.9045H90.8576V66.5071ZM100.09 91.6145H114.839V95.3303H96.0373V62.9045H100.09V91.6145ZM157.623 62.9045C160.026 71.8012 162.446 80.696 164.885 89.5881C167.534 80.7772 170.162 71.9569 172.766 63.1301C173.49 62.9826 174.24 62.9068 175.018 62.9045C175.777 62.9057 176.528 62.9425 177.27 63.0168C179.863 71.8854 182.489 80.7432 185.151 89.5881C187.626 80.6959 190.086 71.8012 192.526 62.9045H196.692C193.593 73.6454 190.458 84.3796 187.29 95.1047C186.586 95.2522 185.854 95.328 185.095 95.3303C184.336 95.3281 183.603 95.2522 182.899 95.1047C180.272 86.0977 177.644 77.0903 175.018 68.0832C172.319 77.0734 169.656 86.0808 167.025 95.1047C166.32 95.2522 165.587 95.3281 164.828 95.3303C164.088 95.3292 163.356 95.2913 162.633 95.217C159.482 84.4493 156.348 73.6779 153.233 62.9045H157.623ZM221.348 66.5071H204.797V76.5276H220.222V80.2434H204.797V91.6145H222.136V95.3303H200.857V62.9045H221.348V66.5071ZM227.99 62.9045C231.669 62.8854 235.347 62.9049 239.024 62.9612C241.682 62.9589 244.121 63.6723 246.342 65.0998C248.389 66.8314 249.328 69.0461 249.156 71.7424C249.182 75.6549 247.381 78.3202 243.752 79.7366C242.912 80.0495 242.049 80.275 241.163 80.4123C244.218 85.3378 247.257 90.2724 250.282 95.217C248.669 95.3667 247.055 95.3668 245.442 95.217C242.571 90.4512 239.699 85.684 236.828 80.9182C235.205 80.8068 233.572 80.7699 231.931 80.8059V95.3303H227.99V62.9045ZM272.462 91.6145H287.211V95.3303H268.522V62.9045H272.462V91.6145ZM301.736 62.9045C303.039 62.8685 304.334 62.9054 305.619 63.0168C310.148 73.7633 314.708 84.4964 319.299 95.217C317.76 95.3668 316.222 95.3668 314.683 95.217C313.617 92.6186 312.528 90.0289 311.418 87.4485C306.051 87.2987 300.685 87.2987 295.318 87.4485C294.251 90.047 293.163 92.6366 292.053 95.217C290.552 95.3668 289.05 95.3668 287.549 95.217C292.323 84.4604 297.052 73.6904 301.736 62.9045ZM132.74 65.719C130.178 66.005 127.89 66.9622 125.873 68.5901C122.474 71.7662 120.954 75.6889 121.313 80.3557C121.81 85.3534 124.27 89.0128 128.688 91.3332C133.446 93.2426 137.874 92.6791 141.973 89.6438C146.26 85.5389 147.629 80.6045 146.082 74.8391C143.862 68.5758 139.415 65.5355 132.74 65.719ZM327.405 80.2434V91.6145C329.958 91.6336 332.511 91.6141 335.062 91.5579C337.267 91.4497 339.124 90.6053 340.634 89.0247C341.903 86.9643 341.903 84.8994 340.634 82.8323C339.232 81.2225 337.45 80.3779 335.286 80.2991C332.66 80.2428 330.033 80.2243 327.405 80.2434ZM303.537 67.9709C301.338 73.2119 299.124 78.4473 296.894 83.677C301.209 83.7333 305.526 83.7518 309.842 83.7327C307.804 78.4446 305.703 73.1903 303.537 67.9709ZM231.931 66.5071V77.0911C234.485 77.1293 237.038 77.073 239.587 76.9221C240.56 76.7825 241.499 76.519 242.402 76.134C243.617 75.5182 244.425 74.561 244.822 73.2629C245.339 71.0664 244.758 69.2465 243.077 67.802C241.539 66.9463 239.889 66.5333 238.123 66.5637C236.06 66.5074 233.996 66.4879 231.931 66.5071ZM327.405 66.5071V76.5276C329.77 76.5467 332.134 76.5272 334.498 76.4709C335.266 76.4079 336.017 76.2572 336.75 76.0207C338.246 75.4634 339.24 74.4313 339.734 72.925C340.239 71.0585 339.845 69.4258 338.552 68.0276C337.134 67.0537 335.557 66.566 333.822 66.5637C331.683 66.5074 329.544 66.4879 327.405 66.5071Z" fill="#F7F5F5"/>
<defs>
<filter id="filter0_f_1068_859" x="0" y="0" width="415" height="217" filterUnits="userSpaceOnUse" color-interpolation-filters="sRGB">
<feFlood flood-opacity="0" result="BackgroundImageFix"/>
<feBlend mode="normal" in="SourceGraphic" in2="BackgroundImageFix" result="shape"/>
<feGaussianBlur stdDeviation="25" result="effect1_foregroundBlur_1068_859"/>
</filter>
</defs>
</svg>
