<svg width="41" height="46" viewBox="0 0 41 46" fill="none" xmlns="http://www.w3.org/2000/svg">
<path opacity="0.967" fill-rule="evenodd" clip-rule="evenodd" d="M19.5052 0C20.1539 0 20.8026 0 21.4513 0C24.41 0.914951 25.7369 2.95141 25.4318 6.10938C29.8506 7.88742 32.8433 11.0619 34.41 15.6328C34.6955 16.5735 34.9019 17.5318 35.0292 18.5078C35.1401 22.13 35.1991 25.7536 35.2061 29.3789C35.286 29.4868 35.3892 29.5617 35.5157 29.6035C38.773 29.7976 40.6012 31.5345 41 34.8145C40.8128 37.5934 39.3975 39.3304 36.7541 40.0254C33.5109 40.0703 30.2675 40.0853 27.024 40.0703C26.5001 43.2976 24.672 45.2742 21.5397 46C20.8321 46 20.1244 46 19.4168 46C16.2845 45.2742 14.4564 43.2976 13.9325 40.0703C10.689 40.0853 7.44561 40.0703 4.20238 40.0254C1.36403 39.2683 -0.0365165 37.3966 0.000723408 34.4102C0.561268 31.3606 2.37461 29.7584 5.44076 29.6035C5.56732 29.5617 5.67052 29.4868 5.75035 29.3789C5.75786 25.6639 5.81684 21.9504 5.92726 18.2383C6.83464 12.3192 10.0191 8.24632 15.4805 6.01953C15.2443 2.90115 16.5859 0.894642 19.5052 0ZM19.9475 3.05469C21.5408 2.93612 22.3959 3.68482 22.5127 5.30078C21.1571 5.07303 19.8009 5.07303 18.4438 5.30078C18.4429 4.19173 18.9442 3.44303 19.9475 3.05469ZM19.8591 8.17578C24.7613 8.23086 28.4027 10.417 30.7833 14.7344C31.4151 16.0429 31.8278 17.4204 32.0217 18.8672C32.1065 22.6431 32.1949 26.4165 32.2871 30.1875C32.7228 31.3787 33.5336 32.1724 34.7196 32.5684C35.3106 32.6528 35.9003 32.7427 36.4888 32.8379C37.931 33.5651 38.2996 34.6582 37.5944 36.1172C37.2786 36.5243 36.8805 36.8088 36.4003 36.9707C25.7856 37.0306 15.1709 37.0306 4.5562 36.9707C3.07256 36.2831 2.6745 35.19 3.36204 33.6914C3.65526 33.3035 4.02382 33.0189 4.46774 32.8379C6.35748 32.9347 7.72858 32.1412 8.58094 30.457C8.65365 30.2515 8.71265 30.0418 8.75785 29.8281C8.76404 26.0531 8.82304 22.2796 8.93476 18.5078C9.73697 13.6798 12.4053 10.4305 16.94 8.75977C17.9069 8.46826 18.8799 8.27359 19.8591 8.17578ZM16.94 40.1602C19.2838 40.0556 21.6427 40.0407 24.0165 40.1152C23.262 42.3558 21.7287 43.2543 19.4168 42.8105C18.177 42.3152 17.3514 41.4318 16.94 40.1602Z" fill="black"/>
</svg>
