<svg width="23" height="23" viewBox="0 0 23 23" fill="none" xmlns="http://www.w3.org/2000/svg">
<path opacity="0.991" d="M17.2524 0.0440369C18.1529 -0.0948649 18.9716 0.094951 19.7085 0.612396C20.617 1.51897 21.5256 2.42554 22.4341 3.33212C23.1461 4.46334 23.1863 5.6196 22.5542 6.7999C17.4923 11.9309 12.3903 17.022 7.24854 22.0733C6.60008 22.5362 5.88122 22.835 5.09229 22.9698C3.59472 23.0097 2.09669 23.0097 0.599121 22.9698C0.329624 22.8603 0.139624 22.6713 0.0297852 22.4024C-0.0101504 20.9081 -0.0101436 19.4134 0.0297852 17.919C0.165945 17.1298 0.465402 16.412 0.928223 15.7667C5.92871 10.7169 10.951 5.68518 15.9946 0.671967C16.3867 0.396667 16.8059 0.187145 17.2524 0.0440369ZM21.4458 21.1173C21.9839 21.3847 22.1738 21.813 22.0151 22.4024C21.9053 22.6713 21.7153 22.8603 21.4458 22.9698C18.0114 23.0097 14.5765 23.0097 11.1421 22.9698C10.7238 22.802 10.5243 22.4929 10.5435 22.0431C10.5317 21.5881 10.7311 21.2694 11.1421 21.087C14.5766 21.077 18.0114 21.0874 21.4458 21.1173ZM12.8198 6.62021C9.44721 10.0157 6.06223 13.4036 2.66553 16.7833C2.33436 17.1856 2.11424 17.6434 2.00635 18.1573C1.92678 19.1319 1.89684 20.1088 1.9165 21.087C2.89687 21.1079 3.87557 21.0778 4.85205 20.9972C5.36725 20.8895 5.82666 20.6706 6.22998 20.3399C9.62463 16.9524 13.0189 13.5644 16.4136 10.1768C15.2235 8.9793 14.0257 7.79367 12.8198 6.62021ZM17.7915 1.95712C17.6314 2.00824 17.4721 2.0788 17.313 2.16708C16.2947 3.18327 15.2756 4.19875 14.2573 5.21494C15.4454 6.40055 16.6337 7.58694 17.8218 8.77255C18.8401 7.7564 19.8582 6.73988 20.8765 5.72372C21.0761 5.34515 21.0761 4.96656 20.8765 4.58798C20.0678 3.78105 19.2593 2.97402 18.4507 2.16708C18.2453 2.05112 18.0255 1.98065 17.7915 1.95712Z" fill="black"/>
</svg>
