<svg width="32" height="32" viewBox="0 0 32 32" fill="none" xmlns="http://www.w3.org/2000/svg">
<path opacity="0.987" d="M18.3125 0C20.1411 0.337578 21.4431 1.35841 22.2188 3.0625C22.3718 3.44561 22.476 3.84144 22.5312 4.25C22.5729 5.45833 22.5729 6.66669 22.5312 7.875C22.1897 8.67731 21.5959 8.93769 20.75 8.65625C20.4069 8.502 20.1882 8.24156 20.0938 7.875C20.0729 6.91669 20.0521 5.95833 20.0312 5C19.875 3.51042 19.0521 2.6875 17.5625 2.53125C13.375 2.48958 9.1875 2.48958 5 2.53125C3.51042 2.6875 2.6875 3.51042 2.53125 5C2.48958 12.3333 2.48958 19.6667 2.53125 27C2.6875 28.4896 3.51042 29.3125 5 29.4688C9.1875 29.5104 13.375 29.5104 17.5625 29.4688C19.0521 29.3125 19.875 28.4896 20.0312 27C20.0521 26.0417 20.0729 25.0833 20.0938 24.125C20.4353 23.3227 21.0291 23.0623 21.875 23.3438C22.2181 23.498 22.4368 23.7584 22.5312 24.125C22.5729 25.3333 22.5729 26.5417 22.5312 27.75C22.2191 29.5928 21.2086 30.8949 19.5 31.6562C19.1045 31.8017 18.7086 31.9163 18.3125 32H4.25C2.19591 31.5819 0.831331 30.3736 0.15625 28.375C0.101149 28.1694 0.0594825 27.9611 0.03125 27.75C-0.0104167 19.9167 -0.0104167 12.0833 0.03125 4.25C0.343441 2.4072 1.35386 1.10512 3.0625 0.34375C3.45801 0.198306 3.85385 0.0837229 4.25 0H18.3125ZM27 10.7188C27.4218 10.6356 27.8177 10.6981 28.1875 10.9062L31.3438 14.0625C31.6108 14.4299 31.8087 14.8258 31.9375 15.25V16.875C31.8087 17.2992 31.6108 17.6951 31.3438 18.0625L28.1875 21.2188C27.499 21.5843 26.8844 21.4905 26.3438 20.9375C26.0521 20.4375 26.0521 19.9375 26.3438 19.4375L28.4375 17.3438C23.3334 17.3229 18.2291 17.3021 13.125 17.2812C12.3954 16.9996 12.1141 16.4683 12.2812 15.6875C12.3958 15.2396 12.6771 14.9583 13.125 14.8438C18.2291 14.8229 23.3334 14.8021 28.4375 14.7812L26.3438 12.6875C25.9139 11.8104 26.1326 11.1542 27 10.7188Z" fill="black"/>
</svg>
