<svg width="38" height="36" viewBox="0 0 38 36" fill="none" xmlns="http://www.w3.org/2000/svg">
<path opacity="0.979" fill-rule="evenodd" clip-rule="evenodd" d="M3.08471 0.0054944C13.6902 -0.00915697 24.2957 0.0054944 34.9011 0.0494397C37.2218 0.760862 38.2325 2.32824 37.9333 4.75159C37.8308 5.29423 37.6256 5.79221 37.3181 6.24573C32.9267 11.1353 28.5029 15.9986 24.0466 20.8356C23.9307 23.6699 23.8708 29.093 23.8708 29.361C23.8708 29.6289 23.6951 29.7125 23.6951 29.7125C23.6951 29.7125 18.6188 33.8516 16.0046 35.8209C15.138 36.0537 14.5081 35.7754 14.115 34.986C14.1143 30.2619 14.0557 25.5451 13.9392 20.8356C9.6033 16.0895 5.26733 11.3434 0.931393 6.59729C-0.0513034 5.27911 -0.256379 3.8435 0.316158 2.29065C0.89621 1.10149 1.81906 0.339778 3.08471 0.0054944ZM3.96362 2.81799C13.9832 2.80334 24.0027 2.81799 34.0222 2.86194C34.8471 3.00242 35.184 3.48579 35.033 4.31214C30.4952 9.40672 25.9249 14.4751 21.322 19.5172C21.2634 19.6344 21.2049 19.7516 21.1462 19.8688C21.1316 22.6232 21.0876 25.3771 21.0144 28.1305C19.6668 29.2144 18.3191 30.2985 16.9714 31.3824C16.8982 27.5449 16.8543 23.707 16.8396 19.8688C16.5509 19.4334 16.2286 19.0233 15.8728 18.6383C11.5011 13.9154 7.19448 9.14006 2.95288 4.31214C2.79129 3.46469 3.1282 2.96669 3.96362 2.81799Z" fill="black"/>
</svg>
