<?xml version="1.0" encoding="UTF-8"?>
<!DOCTYPE svg PUBLIC "-//W3C//DTD SVG 1.1//EN" "http://www.w3.org/Graphics/SVG/1.1/DTD/svg11.dtd">
<svg xmlns="http://www.w3.org/2000/svg" version="1.1" width="512px" height="512px" style="shape-rendering:geometricPrecision; text-rendering:geometricPrecision; image-rendering:optimizeQuality; fill-rule:evenodd; clip-rule:evenodd" xmlns:xlink="http://www.w3.org/1999/xlink">
<g><path style="opacity:0.966" fill="#000000" d="M 242.5,-0.5 C 251.833,-0.5 261.167,-0.5 270.5,-0.5C 308.131,6.27772 333.964,27.6111 348,63.5C 354.886,84.5839 356.553,105.917 353,127.5C 375.957,114.535 400.457,110.368 426.5,115C 474.218,126.549 502.551,156.382 511.5,204.5C 511.5,214.167 511.5,223.833 511.5,233.5C 501.754,286.412 470.421,317.912 417.5,328C 450.452,361.07 459.618,399.904 445,444.5C 429.278,481.394 401.778,503.727 362.5,511.5C 353.833,511.5 345.167,511.5 336.5,511.5C 299.731,504.086 273.065,483.419 256.5,449.5C 239.841,483.842 212.841,504.508 175.5,511.5C 166.5,511.5 157.5,511.5 148.5,511.5C 101.487,501.655 72.3205,473.322 61,426.5C 54.8574,387.929 65.6908,355.095 93.5,328C 40.5788,317.912 9.24551,286.412 -0.5,233.5C -0.5,223.833 -0.5,214.167 -0.5,204.5C 8.44859,156.382 36.7819,126.549 84.5,115C 110.543,110.368 135.043,114.535 158,127.5C 150.317,82.8821 163.817,46.0488 198.5,17C 212.047,8.10084 226.714,2.2675 242.5,-0.5 Z M 245.5,30.5 C 289.091,28.2564 314.924,48.5897 323,91.5C 325.194,111.218 322.194,130.218 314,148.5C 308.813,157.867 304.48,167.534 301,177.5C 296.085,186.332 290.918,194.999 285.5,203.5C 281.094,201.232 276.427,199.899 271.5,199.5C 271.667,177.164 271.5,154.831 271,132.5C 265.63,122.6 257.797,120.1 247.5,125C 244.894,126.938 243.061,129.438 242,132.5C 241.5,154.831 241.333,177.164 241.5,199.5C 236.29,200.221 231.29,201.388 226.5,203C 214.311,184.134 203.811,164.301 195,143.5C 185.794,121.077 184.794,98.41 192,75.5C 201.947,50.9664 219.78,35.9664 245.5,30.5 Z M 93.5,144.5 C 115.591,142.522 135.591,148.022 153.5,161C 162.221,166.714 170.054,173.548 177,181.5C 184.667,194.167 192.333,206.833 200,219.5C 200.667,220.833 200.667,222.167 200,223.5C 196.593,227.318 193.426,231.318 190.5,235.5C 169.885,228.128 149.052,221.462 128,215.5C 113.248,219.159 109.248,227.825 116,241.5C 117.41,242.787 118.91,243.954 120.5,245C 140.698,252.011 161.031,258.511 181.5,264.5C 182.092,270.631 181.425,276.464 179.5,282C 168.167,286 156.833,290 145.5,294C 122.181,299.484 99.1808,298.484 76.5,291C 50.7646,278.379 35.5979,257.879 31,229.5C 27.7789,192.766 42.6122,166.266 75.5,150C 81.5308,147.832 87.5308,145.999 93.5,144.5 Z M 395.5,144.5 C 432.212,141.766 458.712,156.766 475,189.5C 486.86,224.56 479.36,254.727 452.5,280C 432.887,294.391 410.887,300.058 386.5,297C 367.775,294.477 349.775,289.311 332.5,281.5C 332.167,280.167 331.833,278.833 331.5,277.5C 331.953,273.312 331.953,268.978 331.5,264.5C 351.24,258.643 370.906,252.476 390.5,246C 399.208,241.216 402.042,234.049 399,224.5C 394.082,216.86 387.249,214.36 378.5,217C 359.734,222.866 341.067,229.033 322.5,235.5C 319.198,230.397 315.531,225.564 311.5,221C 319.46,207.582 327.293,194.082 335,180.5C 351.663,162.426 371.83,150.426 395.5,144.5 Z M 251.5,228.5 C 272.201,227.76 287.368,236.427 297,254.5C 305.866,280.897 298.033,300.73 273.5,314C 246.691,322.008 227.191,313.508 215,288.5C 208.071,256.668 220.237,236.668 251.5,228.5 Z M 188.5,311.5 C 190.39,311.297 191.89,311.963 193,313.5C 195.112,317.278 197.612,320.778 200.5,324C 188,341.167 175.5,358.333 163,375.5C 159.604,388.053 164.271,395.386 177,397.5C 180.383,397.483 183.55,396.65 186.5,395C 199.743,377.846 212.743,360.512 225.5,343C 230.682,344.44 236.016,345.606 241.5,346.5C 244.519,377.695 240.019,407.695 228,436.5C 211.021,470.074 183.854,484.24 146.5,479C 106.347,465.221 87.8466,437.055 91,394.5C 95.3841,373.225 106.217,356.058 123.5,343C 143.361,328.736 165.028,318.236 188.5,311.5 Z M 321.5,311.5 C 348.65,318.741 372.984,331.241 394.5,349C 420.051,373.333 426.884,402.167 415,435.5C 399.592,467.46 374.092,482.294 338.5,480C 314.817,473.983 297.317,460.15 286,438.5C 273.055,409.194 268.222,378.528 271.5,346.5C 276.703,345.949 281.703,344.616 286.5,342.5C 287.167,342.833 287.833,343.167 288.5,343.5C 300.588,361.089 313.255,378.255 326.5,395C 338.218,400.435 346.384,397.268 351,385.5C 351.701,382.072 351.368,378.738 350,375.5C 337.867,358.068 325.367,340.901 312.5,324C 315.877,320.069 318.877,315.902 321.5,311.5 Z"/></g>
</svg>
