<svg width="33" height="26" viewBox="0 0 33 26" fill="none" xmlns="http://www.w3.org/2000/svg">
<path opacity="0.95" d="M27.1699 0.164001C27.5992 -0.0546593 28.0288 -0.054655 28.458 0.164001C28.8809 0.619563 28.9563 1.13383 28.6836 1.70599C21.0541 9.47947 13.4244 17.2528 5.79492 25.0263C4.61237 25.4392 4.06434 25.0126 4.15234 23.747C4.19527 23.6596 4.23832 23.5718 4.28125 23.4843C5.26939 22.4884 6.24607 21.4826 7.21094 20.4667C4.21866 18.5551 1.81495 16.062 0 12.9882V12.2011C2.44914 8.03352 5.8833 5.02712 10.3018 3.18158C13.9038 1.91251 17.5523 1.75962 21.2471 2.7226C22.0986 2.97534 22.9248 3.29241 23.7256 3.67377C24.8737 2.50401 26.0218 1.33378 27.1699 0.164001ZM27.2988 5.93646C27.3632 5.89275 27.4279 5.89282 27.4922 5.93646C29.6991 7.69222 31.5235 9.78056 32.9648 12.2011V12.9882C30.2887 17.5616 26.4688 20.7001 21.5049 22.4023C18.1105 23.3287 14.7193 23.3173 11.332 22.3691C11.3225 22.3002 11.3332 22.2349 11.3643 22.1728C11.9034 21.6015 12.4614 21.0541 13.0381 20.5322C17.6376 21.5279 21.8547 20.6428 25.6895 17.8759C27.6411 16.4014 29.294 14.6406 30.6475 12.5947C29.3381 10.6154 27.7497 8.89897 25.8828 7.44525C26.3306 6.9233 26.8024 6.42025 27.2988 5.93646ZM22.3418 10.955C23.0682 13.4942 22.4457 15.6703 20.4746 17.4824C18.8285 18.7871 16.9826 19.2022 14.9375 18.7285C14.8763 18.6814 14.8655 18.6266 14.9053 18.5644C15.4954 17.9631 16.0857 17.3619 16.6758 16.7607C18.9612 16.4436 20.2591 15.1206 20.5703 12.7919C21.1735 12.1883 21.7647 11.5759 22.3418 10.955ZM16.418 4.19818C14.2038 4.2495 12.079 4.74207 10.0439 5.67474C6.83952 7.24466 4.26353 9.55089 2.31738 12.5947C4.0124 15.23 6.20189 17.2966 8.88477 18.7939C9.72176 17.9411 10.5595 17.0891 11.3965 16.2363C10.841 15.4135 10.4867 14.5057 10.334 13.5136C10.0629 10.4243 11.2755 8.18331 13.9717 6.78998C16.1089 5.95562 18.1366 6.16323 20.0557 7.41302C20.7317 6.72428 21.408 6.03537 22.084 5.34662C20.2658 4.60659 18.3771 4.2235 16.418 4.19818ZM15.4521 8.56049C13.9606 9.03065 12.9839 10.0261 12.5225 11.5458C12.2789 12.6383 12.4295 13.6661 12.9736 14.6288C14.8086 12.7593 16.6436 10.8891 18.4785 9.01947C17.8434 8.63248 17.1563 8.42489 16.418 8.39642C16.1053 8.45074 15.7832 8.50552 15.4521 8.56049Z" fill="black"/>
</svg>
