<svg width="42" height="42" viewBox="0 0 42 42" fill="none" xmlns="http://www.w3.org/2000/svg">
<path opacity="0.974" d="M32.8125 0C37.9262 1.01221 40.9888 4.07471 42 9.1875V32.8125C40.9883 37.9258 37.9258 40.9883 32.8125 42H9.1875C4.07422 40.9883 1.01172 37.9258 0 32.8125V9.1875C1.01123 4.07471 4.07373 1.01221 9.1875 0H32.8125ZM9.92578 3.52734C6.53622 4.05915 4.44442 6.00055 3.65039 9.35156C3.51531 16.8966 3.48797 24.4434 3.56836 31.9922C3.62901 32.7269 3.79307 33.4379 4.06055 34.125C5.20224 36.6603 7.15732 38.0959 9.92578 38.4316C17.3086 38.4864 24.6914 38.4864 32.0742 38.4316C32.7795 38.3579 33.4631 38.1938 34.125 37.9395C36.6932 36.783 38.1288 34.8005 38.4316 31.9922C38.4864 24.6641 38.4864 17.3359 38.4316 10.0078C38.371 9.27306 38.207 8.56209 37.9395 7.875C36.7977 5.33964 34.8427 3.9041 32.0742 3.56836C24.6915 3.52734 17.3087 3.51367 9.92578 3.52734ZM19.6875 10.5C23.4802 10.1915 26.6385 11.4493 29.1621 14.2734C31.6562 17.5906 32.1757 21.2001 30.7207 25.1016C28.485 29.6862 24.8073 31.8054 19.6875 31.459C15.5734 30.7897 12.7159 28.5338 11.1152 24.6914C9.67679 20.0669 10.7296 16.1157 14.2734 12.8379C15.8784 11.5839 17.6832 10.8046 19.6875 10.5ZM20.4258 14.0273C17.6704 14.3894 15.7152 15.8388 14.5605 18.375C13.5012 21.4794 14.1712 24.1454 16.5703 26.373C19.3572 28.4041 22.2009 28.4862 25.1016 26.6191C27.4159 24.7625 28.3046 22.3698 27.7676 19.4414C26.6615 15.8353 24.2142 14.0305 20.4258 14.0273ZM31.8281 6.97266C34.0271 6.91601 35.08 7.98241 34.9863 10.1719C34.3792 11.9451 33.1621 12.5877 31.3359 12.0996C30.0013 11.4125 29.4954 10.3322 29.8184 8.85938C30.1513 7.86667 30.8213 7.23776 31.8281 6.97266Z" fill="#463641"/>
</svg>
