<svg width="35" height="28" viewBox="0 0 35 28" fill="none" xmlns="http://www.w3.org/2000/svg">
<path d="M1.77734 15.8936C4.60285 15.848 7.42842 15.848 10.2539 15.8936C11.154 16.1556 11.735 16.7366 11.9971 17.6367C12.0427 20.4622 12.0427 23.2878 11.9971 26.1133C11.735 27.0134 11.154 27.5944 10.2539 27.8564C7.42842 27.902 4.60285 27.902 1.77734 27.8564C0.876201 27.5818 0.28375 27.0008 0 26.1133V17.6367C0.283746 16.7492 0.876224 16.1682 1.77734 15.8936ZM2.39258 18.0469C2.3264 18.1022 2.26937 18.1706 2.22168 18.252C2.16518 20.6929 2.17658 23.1311 2.25586 25.5664C2.29176 25.6137 2.33735 25.6479 2.39258 25.6689C4.83356 25.7254 7.27174 25.7141 9.70703 25.6348C9.75432 25.5989 9.78851 25.5533 9.80957 25.498C9.86604 23.0571 9.85468 20.6189 9.77539 18.1836C9.7395 18.1363 9.69391 18.1021 9.63867 18.0811C7.22341 18.0469 4.80804 18.0355 2.39258 18.0469ZM15.9951 23.2422C20.0968 23.2308 24.1992 23.2422 28.3008 23.2764C28.9145 23.5821 29.1312 24.0722 28.9502 24.7461C28.8249 25.0536 28.6082 25.2702 28.3008 25.3955C24.1991 25.4411 20.0968 25.4411 15.9951 25.3955C15.5177 25.2036 15.2897 24.8503 15.3115 24.3359C15.298 23.8155 15.5261 23.4508 15.9951 23.2422ZM15.9951 18.9014C22.102 18.8558 28.2096 18.8558 34.3164 18.9014C34.6253 19.0396 34.8533 19.2562 35 19.5508V20.3711C34.8533 20.6657 34.6253 20.8823 34.3164 21.0205C28.2096 21.0661 22.102 21.0661 15.9951 21.0205C15.5177 20.8286 15.2897 20.4753 15.3115 19.9609C15.2897 19.4465 15.5178 19.0933 15.9951 18.9014ZM1.77734 0.0341797C4.60285 -0.0113954 7.42842 -0.0113935 10.2539 0.0341797C11.154 0.296226 11.735 0.877261 11.9971 1.77734C12.0427 4.60275 12.0427 7.4285 11.9971 10.2539C11.735 11.1538 11.1539 11.7351 10.2539 11.9971C7.42842 12.0427 4.60285 12.0427 1.77734 11.9971C0.876265 11.7225 0.283785 11.1413 0 10.2539V1.77734C0.283738 0.889856 0.876267 0.30879 1.77734 0.0341797ZM2.39258 2.1875C2.32645 2.2428 2.26933 2.31128 2.22168 2.39258C2.16519 4.83346 2.17658 7.27182 2.25586 9.70703C2.29175 9.75425 2.3374 9.78854 2.39258 9.80957C4.83356 9.86603 7.27175 9.85468 9.70703 9.77539C9.75425 9.73957 9.78851 9.69377 9.80957 9.63867C9.86603 7.19779 9.85468 4.75943 9.77539 2.32422C9.7395 2.27689 9.69391 2.24271 9.63867 2.22168C7.22341 2.1875 4.80804 2.1761 2.39258 2.1875ZM15.9951 7.38281C20.0968 7.3714 24.1992 7.38281 28.3008 7.41699C28.9145 7.72278 29.1312 8.21283 28.9502 8.88672C28.8249 9.19421 28.6083 9.41083 28.3008 9.53613C24.1991 9.58173 20.0968 9.58173 15.9951 9.53613C15.5178 9.34426 15.2898 8.99085 15.3115 8.47656C15.298 7.95617 15.5261 7.59141 15.9951 7.38281ZM15.9951 3.31543C22.102 3.26985 28.2096 3.26985 34.3164 3.31543C34.6252 3.45366 34.8533 3.67025 35 3.96484V4.78516C34.8532 5.07974 34.6253 5.29637 34.3164 5.43457C28.2096 5.48017 22.102 5.48017 15.9951 5.43457C15.5178 5.24271 15.2898 4.88926 15.3115 4.375C15.2897 3.86063 15.5178 3.50736 15.9951 3.31543Z" fill="black"/>
</svg>
