<?xml version="1.0" encoding="UTF-8"?>
<!DOCTYPE svg PUBLIC "-//W3C//DTD SVG 1.1//EN" "http://www.w3.org/Graphics/SVG/1.1/DTD/svg11.dtd">
<svg xmlns="http://www.w3.org/2000/svg" version="1.1" width="512px" height="512px" style="shape-rendering:geometricPrecision; text-rendering:geometricPrecision; image-rendering:optimizeQuality; fill-rule:evenodd; clip-rule:evenodd" xmlns:xlink="http://www.w3.org/1999/xlink">
<g><path style="opacity:0.979" fill="#000000" d="M 240.5,15.5 C 284.953,11.6934 321.453,26.6934 350,60.5C 364.204,79.1004 372.537,100.1 375,123.5C 375.5,143.831 375.667,164.164 375.5,184.5C 413.75,182.937 437.583,200.603 447,237.5C 447.667,306.167 447.667,374.833 447,443.5C 441.119,469.714 425.285,486.547 399.5,494C 351.536,495.155 303.536,495.655 255.5,495.5C 207.464,495.655 159.464,495.155 111.5,494C 85.6873,486.521 69.854,469.688 64,443.5C 63.3333,374.833 63.3333,306.167 64,237.5C 73.417,200.603 97.2503,182.937 135.5,184.5C 135.088,161.468 135.588,138.468 137,115.5C 149.478,59.1861 183.978,25.8527 240.5,15.5 Z M 254.5,47.5 C 303.567,51.2693 332.733,77.2693 342,125.5C 342.5,145.164 342.667,164.831 342.5,184.5C 284.5,184.5 226.5,184.5 168.5,184.5C 168.333,164.831 168.5,145.164 169,125.5C 178.001,77.9947 206.501,51.9947 254.5,47.5 Z M 120.5,217.5 C 210.501,217.333 300.501,217.5 390.5,218C 405.427,222.665 413.593,232.831 415,248.5C 415.667,309.5 415.667,370.5 415,431.5C 413.167,450.667 402.667,461.167 383.5,463C 298.167,463.667 212.833,463.667 127.5,463C 108.333,461.167 97.8333,450.667 96,431.5C 95.3333,370.5 95.3333,309.5 96,248.5C 97.5184,232.748 105.685,222.414 120.5,217.5 Z"/></g>
<g><path style="opacity:0.97" fill="#000000" d="M 252.5,285.5 C 273.201,286.342 284.867,297.008 287.5,317.5C 287.326,326.175 284.16,333.509 278,339.5C 277.667,353.833 277.333,368.167 277,382.5C 275.092,388.74 270.925,392.573 264.5,394C 258.5,394.667 252.5,394.667 246.5,394C 240.075,392.573 235.908,388.74 234,382.5C 233.667,368.167 233.333,353.833 233,339.5C 220.532,325.005 220.366,310.338 232.5,295.5C 238.188,289.989 244.854,286.656 252.5,285.5 Z"/></g>
</svg>
