<svg width="170" height="56" viewBox="0 0 170 56" fill="none" xmlns="http://www.w3.org/2000/svg">
<path d="M92.0234 36.3044C94.7804 36.2928 97.538 36.3044 100.295 36.3386C106.007 37.1166 108.992 40.3882 109.251 46.1501C109.01 51.8488 106.07 55.119 100.433 55.9607C97.6297 55.9949 94.8263 56.0065 92.0234 55.9949V36.3044ZM129.83 55.9949C128.918 56.0065 128.007 55.9949 127.096 55.9607C126.415 54.4095 125.755 52.8475 125.113 51.2771C121.855 51.1971 118.596 51.1862 115.337 51.2429C114.657 52.7942 113.995 54.3561 113.354 55.9265C112.442 56.0174 111.53 56.0174 110.619 55.9265C113.51 49.3928 116.382 42.8521 119.233 36.3054H121.558C124.315 42.8686 127.073 49.4317 129.83 55.9949ZM61.3945 53.739H70.3506V55.9949H59.002V36.3054H61.3945V53.739ZM79.2383 36.3054C79.9917 36.2829 80.7444 36.3054 81.4951 36.3738C84.2755 42.891 87.0546 49.4093 89.835 55.9265C88.9005 56.0174 87.9666 56.0174 87.0322 55.9265C86.3643 54.3671 85.7034 52.8058 85.0498 51.2429C81.7908 51.1862 78.5317 51.1971 75.2734 51.2771C74.6055 52.8365 73.9446 54.3978 73.291 55.9607C72.3797 56.0065 71.467 56.0065 70.5557 55.9607C73.4598 49.412 76.354 42.8603 79.2383 36.3054ZM39.3809 36.3054C40.2935 36.2829 41.2047 36.3054 42.1152 36.3738C44.1156 41.7035 46.1103 47.0357 48.0977 52.3708C50.208 47.0556 52.2811 41.7232 54.3184 36.3738C55.1688 36.2835 56.0241 36.2835 56.8828 36.3738C54.3437 42.8966 51.7914 49.4147 49.2256 55.9265C48.4354 56.0167 47.6492 56.0167 46.8672 55.9265C44.365 49.3874 41.8694 42.8466 39.3809 36.3054ZM94.416 38.5613V53.738C96.285 53.7497 98.1532 53.738 100.021 53.7039C104.399 53.0975 106.61 50.5794 106.653 46.1501C106.595 41.6591 104.338 39.141 99.8848 38.5955C98.0623 38.5613 96.2392 38.5497 94.416 38.5613ZM80.2637 39.3816C78.9524 42.5743 77.6087 45.7534 76.2305 48.9187C78.851 48.9529 81.4723 48.9645 84.0928 48.9529C82.8519 45.7431 81.5756 42.5524 80.2637 39.3816ZM120.259 39.45C118.976 42.6084 117.654 45.7534 116.294 48.8845C118.914 48.9754 121.536 48.9754 124.156 48.8845C122.917 45.862 121.697 42.8307 120.498 39.7917C120.46 39.6373 120.38 39.5231 120.259 39.45ZM164.355 24.6824C164.516 24.7056 164.676 24.7398 164.834 24.7849C166.346 25.8179 167.838 26.8783 169.312 27.9646C169.508 28.4458 169.429 28.8669 169.072 29.2292C167.705 30.1637 166.338 31.0975 164.971 32.032C164.197 32.3711 163.719 32.1319 163.535 31.3142C163.551 31.0265 163.665 30.7871 163.877 30.5964C164.47 30.1863 165.062 29.7761 165.654 29.366C110.619 29.3434 55.5831 29.3202 0.547852 29.2976C0.169341 29.1451 -0.0133145 28.8606 0.000976562 28.4431C-0.0188436 27.9914 0.186459 27.7063 0.616211 27.5886C55.6057 27.5661 110.596 27.5428 165.586 27.5203C165.074 27.1389 164.549 26.7744 164.014 26.4265C163.294 25.6704 163.409 25.0885 164.355 24.6824ZM39.6543 0.00268555C43.828 -0.0704021 46.9846 1.66078 49.123 5.198C50.4056 7.85129 50.679 10.6087 49.9434 13.4705C48.5145 17.8158 45.5179 20.2198 40.9531 20.6833C37.193 20.95 34.1281 19.6388 31.7578 16.7517C29.9763 14.1313 29.3843 11.2597 29.9805 8.13745C30.6615 4.7913 32.5413 2.38716 35.6201 0.925537C36.9191 0.376552 38.2637 0.0690014 39.6543 0.00268555ZM155.126 0.548584C157.519 0.536966 159.911 0.548586 162.304 0.582764C164.113 0.660702 165.628 1.35606 166.851 2.6687C167.965 4.45084 167.988 6.25072 166.919 8.06909C166.25 8.91882 165.396 9.50078 164.355 9.81323C167.101 10.337 168.537 11.989 168.662 14.7693C168.629 17.0117 167.581 18.5737 165.518 19.4529C164.571 19.8207 163.59 20.0483 162.577 20.1365C160.094 20.2315 157.611 20.2657 155.126 20.239V0.548584ZM13.8799 2.73706H4.03516V9.16284H13.1963V11.4197H4.03516V20.239H1.64258V0.548584H13.8799V2.73706ZM19.4863 17.9822H28.4424V20.239H17.0244V0.548584H19.4863V17.9822ZM54.4219 0.548584C55.8808 5.95086 57.3503 11.3522 58.8311 16.7517C60.4397 11.4014 62.0359 6.04522 63.6172 0.685303C64.0567 0.595788 64.5121 0.549951 64.9844 0.548584C65.4451 0.549271 65.9011 0.571829 66.3516 0.616943C67.926 6.00218 69.5215 11.3808 71.1377 16.7517C72.6411 11.3522 74.1338 5.95084 75.6152 0.548584H78.1445C76.2631 7.07078 74.3604 13.5897 72.4365 20.1023C72.0087 20.1918 71.5642 20.2376 71.1035 20.239C70.6427 20.2376 70.1975 20.1919 69.7695 20.1023C68.1746 14.633 66.5793 9.16335 64.9844 3.69409C63.3456 9.15311 61.7276 14.6228 60.1299 20.1023C59.702 20.1918 59.2575 20.2376 58.7969 20.239C58.3471 20.2383 57.9027 20.2158 57.4639 20.1707C55.5503 13.6321 53.6466 7.0906 51.7549 0.548584H54.4219ZM93.1172 2.73706H83.0674V8.82104H92.4336V11.0779H83.0674V17.9822H93.5957V20.239H80.6738V0.548584H93.1172V2.73706ZM97.1504 0.548584C99.3839 0.536962 101.618 0.548581 103.851 0.582764C105.465 0.581396 106.946 1.01568 108.295 1.88257C109.537 2.93397 110.108 4.27863 110.004 5.91577C110.02 8.29152 108.925 9.91021 106.722 10.7703C106.212 10.9602 105.687 11.097 105.149 11.1804C107.004 14.1714 108.851 17.168 110.688 20.1707C109.708 20.2616 108.727 20.2616 107.747 20.1707C106.004 17.2768 104.261 14.3819 102.518 11.488C101.532 11.4204 100.541 11.3978 99.5439 11.4197V20.239H97.1504V0.548584ZM124.155 17.9822H133.111V20.239H121.763V0.548584H124.155V17.9822ZM141.931 0.548584C142.722 0.526711 143.508 0.549295 144.289 0.616943C147.039 7.14255 149.808 13.6608 152.596 20.1707C151.661 20.2615 150.727 20.2616 149.793 20.1707C149.146 18.5927 148.485 17.0198 147.811 15.4529C144.552 15.362 141.293 15.362 138.034 15.4529C137.387 17.0308 136.726 18.6037 136.052 20.1707C135.14 20.2616 134.228 20.2616 133.316 20.1707C136.215 13.6389 139.087 7.09812 141.931 0.548584ZM39.3125 2.25854C37.7565 2.4322 36.3661 3.01312 35.1416 4.00171C33.0777 5.93032 32.155 8.31249 32.373 11.1462C32.6753 14.1809 34.168 16.4032 36.8506 17.8123C39.7398 18.9718 42.4287 18.629 44.918 16.7859C47.5213 14.2932 48.3534 11.2967 47.4141 7.79565C46.0659 3.99267 43.365 2.1472 39.3125 2.25854ZM157.519 11.0779V17.9822C159.068 17.9938 160.618 17.9822 162.167 17.948C163.506 17.8824 164.635 17.3698 165.552 16.4099C166.322 15.159 166.322 13.9052 165.552 12.6501C164.701 11.6725 163.618 11.1599 162.304 11.1121C160.709 11.0779 159.114 11.0663 157.519 11.0779ZM143.024 3.62573C141.689 6.80811 140.346 9.9873 138.991 13.1628C141.612 13.197 144.233 13.2086 146.854 13.197C145.616 9.98585 144.34 6.7952 143.024 3.62573ZM99.5439 2.73706V9.16284C101.095 9.18607 102.645 9.1519 104.192 9.0603C104.783 8.97553 105.353 8.81558 105.901 8.58179C106.64 8.20782 107.13 7.62689 107.371 6.83862C107.685 5.50482 107.332 4.40032 106.312 3.52319C105.378 3.00367 104.376 2.75279 103.304 2.77124C102.051 2.73706 100.798 2.72545 99.5439 2.73706ZM157.519 2.73706V8.82104C158.954 8.83266 160.39 8.82104 161.825 8.78687C162.291 8.74859 162.747 8.65694 163.192 8.51343C164.101 8.17501 164.705 7.54829 165.005 6.63354C165.312 5.50025 165.072 4.5089 164.287 3.65991C163.426 3.06854 162.469 2.77261 161.415 2.77124C160.116 2.73706 158.817 2.72544 157.519 2.73706Z" fill="black"/>
</svg>
