<svg width="57" height="42" viewBox="0 0 57 42" fill="none" xmlns="http://www.w3.org/2000/svg">
<path d="M10.3432 41.9035V39.1131C10.3432 38.043 9.65836 37.3456 8.53425 37.3456C7.94385 37.3456 7.31213 37.532 6.8717 38.1317C6.52927 37.6196 6.04515 37.3456 5.30716 37.3456C5.03277 37.3344 4.75973 37.3879 4.51245 37.5016C4.26518 37.6153 4.05139 37.7854 3.89022 37.9969V37.4355H2.96094V41.9001H3.89022V39.3455C3.89022 38.5595 4.37906 38.1833 5.06392 38.1833C5.74877 38.1833 6.13961 38.6022 6.13961 39.3455V41.9035H7.06889V39.3455C7.06889 38.5595 7.55774 38.1833 8.24259 38.1833C8.92745 38.1833 9.31829 38.6022 9.31829 39.3455V41.9035H10.3432ZM25.6013 37.4849H23.8892V36.1374H22.9623V37.4849H21.9846V38.2709H22.9623V40.3685C22.9623 41.3915 23.3531 41.9967 24.5268 41.9967C24.9715 41.9879 25.4072 41.8761 25.7962 41.6711L25.5021 40.885C25.2383 41.0419 24.9323 41.1226 24.6213 41.1175C24.1324 41.1175 23.888 40.8379 23.888 40.373V38.235H25.6001V37.4905L25.6013 37.4849ZM34.3061 37.3456C34.053 37.3403 33.8027 37.3975 33.5798 37.5116C33.3569 37.6258 33.169 37.793 33.0344 37.9969V37.4355H32.1051V41.9001H33.0344V39.3927C33.0344 38.6482 33.4252 38.1833 34.0617 38.1833C34.2764 38.1916 34.4895 38.2229 34.6969 38.2765L34.9909 37.4388C34.7667 37.3851 34.5372 37.3538 34.3061 37.3456ZM21.1509 37.8105C20.6621 37.4849 19.9772 37.3456 19.244 37.3456C18.0703 37.3456 17.337 37.8577 17.337 38.7414C17.337 39.4859 17.8754 39.9036 18.9015 40.044L19.3904 40.09C19.9288 40.1832 20.2713 40.3696 20.2713 40.6021C20.2713 40.9277 19.8804 41.1635 19.146 41.1635C18.5852 41.1745 18.0359 41.0113 17.5814 40.6986L17.0926 41.396C17.7774 41.8608 18.6087 41.9574 19.0999 41.9574C20.4696 41.9574 21.2029 41.3533 21.2029 40.5156C21.2029 39.7296 20.6125 39.3534 19.5888 39.213L19.0999 39.167C18.6595 39.1209 18.2734 38.9806 18.2734 38.7021C18.2734 38.3765 18.6642 38.1407 19.2026 38.1407C19.793 38.1407 20.3763 38.3731 20.6704 38.5123L21.1509 37.8105ZM35.3334 39.6712C35.3334 41.0187 36.2626 41.9967 37.7788 41.9967C38.4636 41.9967 38.9525 41.8575 39.4413 41.4847L38.9525 40.7873C38.6064 41.0539 38.1757 41.2015 37.7304 41.2062C36.9038 41.2062 36.2626 40.6021 36.2626 39.7183C36.2626 38.8346 36.8955 38.235 37.7304 38.235C38.1757 38.2397 38.6064 38.3873 38.9525 38.6538L39.4413 37.9565C38.9525 37.5848 38.4636 37.4445 37.7788 37.4445C36.3111 37.3512 35.3334 38.3282 35.3334 39.6768V39.6712ZM28.78 37.3456C27.4103 37.3456 26.481 38.2754 26.481 39.6712C26.481 41.0669 27.4587 41.9967 28.8768 41.9967C29.5667 42.0106 30.2405 41.7971 30.7838 41.3926L30.295 40.7413C29.902 41.0309 29.4222 41.1937 28.9252 41.2062C28.29 41.2062 27.6051 40.8345 27.5083 40.044H30.981V39.6723C30.981 38.2765 30.1001 37.3468 28.78 37.3468V37.3456ZM28.7316 38.1833C29.4164 38.1833 29.9053 38.6022 29.9537 39.2995H27.4115C27.5579 38.6482 28.0019 38.1833 28.7316 38.1833ZM16.0653 39.6712V37.4388H15.136V38.0003C14.7936 37.5814 14.3095 37.349 13.6199 37.349C12.2998 37.349 11.3209 38.3259 11.3209 39.6745C11.3209 41.0231 12.2986 42.0001 13.6199 42.0001C14.3047 42.0001 14.7936 41.7676 15.136 41.3488V41.9102H16.0653V39.6712ZM12.2998 39.6712C12.2998 38.8335 12.8382 38.1833 13.7675 38.1833C14.6484 38.1833 15.1844 38.8346 15.1844 39.6712C15.1844 40.5549 14.594 41.159 13.7675 41.159C12.8382 41.2051 12.2998 40.5077 12.2998 39.6712ZM48.4413 37.3456C48.1882 37.3403 47.9379 37.3975 47.715 37.5116C47.4921 37.6258 47.3042 37.793 47.1696 37.9969V37.4355H46.2403V41.9001H47.1684V39.3927C47.1684 38.6482 47.5592 38.1833 48.1957 38.1833C48.4104 38.1916 48.6235 38.2229 48.8309 38.2765L49.1249 37.4388C48.9007 37.3851 48.6712 37.3538 48.4401 37.3456H48.4413ZM44.8222 39.6712V37.4388H43.8929V38.0003C43.5505 37.5814 43.0663 37.349 42.3768 37.349C41.0566 37.349 40.0778 38.3259 40.0778 39.6745C40.0778 41.0231 41.0555 42.0001 42.3768 42.0001C43.0616 42.0001 43.5505 41.7676 43.8929 41.3488V41.9102H44.8222V39.6712ZM41.0566 39.6712C41.0566 38.8335 41.5951 38.1833 42.5244 38.1833C43.4052 38.1833 43.9413 38.8346 43.9413 39.6712C43.9413 40.5549 43.3509 41.159 42.5244 41.159C41.5951 41.2051 41.0566 40.5077 41.0566 39.6712ZM54.2614 39.6712V35.6714H53.3321V37.9969C52.9897 37.5781 52.5055 37.3456 51.816 37.3456C50.4958 37.3456 49.517 38.3226 49.517 39.6712C49.517 41.0198 50.4947 41.9967 51.816 41.9967C52.5008 41.9967 52.9897 41.7643 53.3321 41.3454V41.9069H54.2614V39.6712ZM50.4958 39.6712C50.4958 38.8335 51.0343 38.1833 51.9636 38.1833C52.8444 38.1833 53.3805 38.8346 53.3805 39.6712C53.3805 40.5549 52.7901 41.159 51.9636 41.159C51.0331 41.2062 50.4947 40.5089 50.4947 39.6712H50.4958Z" fill="black"/>
<path d="M37.0455 3.58105H20.0752V29.9042H37.0455V3.58105Z" fill="#FF5F00"/>
<path d="M21.7873 16.7425C21.7879 14.2102 22.3909 11.7108 23.5511 9.43157C24.7114 7.15229 26.3988 5.15216 28.4871 3.58095C25.89 1.63913 22.7709 0.431393 19.4861 0.0958005C16.2014 -0.239792 12.8836 0.310302 9.91207 1.6832C6.94055 3.0561 4.43518 5.1964 2.68236 7.85944C0.929537 10.5225 0 13.6008 0 16.7425C0 19.8842 0.929537 22.9625 2.68236 25.6256C4.43518 28.2886 6.94055 30.4289 9.91207 31.8018C12.8836 33.1747 16.2014 33.7248 19.4861 33.3892C22.7709 33.0536 25.89 31.8459 28.4871 29.9041C26.3988 28.3329 24.7114 26.3327 23.5511 24.0535C22.3909 21.7742 21.7879 19.2748 21.7873 16.7425Z" fill="#EB001B"/>
<path d="M56.9999 16.7427C57.0023 19.8821 56.0755 22.9588 54.3256 25.6208C52.5756 28.2829 50.0732 30.4228 47.1044 31.7959C44.1356 33.169 40.8205 33.7198 37.538 33.3852C34.2555 33.0507 31.1384 31.8444 28.543 29.9042C30.6317 28.3334 32.3195 26.3334 33.4799 24.054C34.6402 21.7747 35.2429 19.2751 35.2429 16.7427C35.2429 14.2103 34.6402 11.7107 33.4799 9.43132C32.3195 7.15196 30.6317 5.15191 28.543 3.58111C31.1384 1.64097 34.2555 0.434648 37.538 0.100119C40.8205 -0.23441 44.1356 0.31636 47.1044 1.68944C50.0732 3.06251 52.5756 5.20245 54.3256 7.86451C56.0755 10.5266 57.0023 13.6032 56.9999 16.7427Z" fill="#F79E1B"/>
</svg>
