<?xml version="1.0" encoding="UTF-8"?>
<!DOCTYPE svg PUBLIC "-//W3C//DTD SVG 1.1//EN" "http://www.w3.org/Graphics/SVG/1.1/DTD/svg11.dtd">
<svg xmlns="http://www.w3.org/2000/svg" version="1.1" width="512px" height="512px" style="shape-rendering:geometricPrecision; text-rendering:geometricPrecision; image-rendering:optimizeQuality; fill-rule:evenodd; clip-rule:evenodd" xmlns:xlink="http://www.w3.org/1999/xlink">
<g><path style="opacity:0.986" fill="#000000" d="M 69.5,95.5 C 193.5,95.3333 317.5,95.5 441.5,96C 461.333,101.167 473.833,113.667 479,133.5C 479.667,214.833 479.667,296.167 479,377.5C 473.833,397.333 461.333,409.833 441.5,415C 317.5,415.667 193.5,415.667 69.5,415C 49.6667,409.833 37.1667,397.333 32,377.5C 31.3333,296.167 31.3333,214.833 32,133.5C 37.3488,113.652 49.8488,100.985 69.5,95.5 Z M 90.5,128.5 C 200.333,127.334 310.333,127.167 420.5,128C 369.167,171 317.833,214 266.5,257C 259.167,263 251.833,263 244.5,257C 193.321,213.92 141.987,171.087 90.5,128.5 Z M 63.5,149.5 C 116.627,193.455 169.627,237.622 222.5,282C 244.5,298.667 266.5,298.667 288.5,282C 341.333,237.833 394.167,193.667 447,149.5C 447.667,222.167 447.667,294.833 447,367.5C 445.833,376.667 440.667,381.833 431.5,383C 314.167,383.667 196.833,383.667 79.5,383C 70.3333,381.833 65.1667,376.667 64,367.5C 63.5,294.834 63.3333,222.167 63.5,149.5 Z"/></g>
</svg>
