<svg width="27" height="34" viewBox="0 0 27 34" fill="none" xmlns="http://www.w3.org/2000/svg">
<path d="M24.8682 0C26.0269 0.351774 26.727 1.12682 26.9678 2.3252C27.0109 12.2724 27.0109 22.2198 26.9678 32.167C26.8468 32.5781 26.5989 32.8795 26.2246 33.0713H25.3848C24.0267 32.171 22.6806 31.245 21.3477 30.2939C20.0352 31.2131 18.7329 32.1391 17.4404 33.0713H16.6006C15.5495 32.2359 14.5157 31.3751 13.5 30.4883C12.4843 31.3751 11.4505 32.2359 10.3994 33.0713H9.55957C8.27057 32.1493 6.97899 31.2233 5.68457 30.2939C4.33519 31.2371 2.97847 32.163 1.61523 33.0713H0.775391C0.401131 32.8795 0.153184 32.5781 0.0322266 32.167C-0.0108358 22.2198 -0.0108371 12.2724 0.0322266 2.3252C0.272967 1.12683 0.973079 0.351774 2.13184 0H24.8682ZM2.64844 2.3252C2.57168 2.38098 2.49584 2.44613 2.42188 2.51953C2.37881 11.5625 2.37881 20.6055 2.42188 29.6484C3.27233 29.0563 4.12316 28.4642 4.97363 27.8721C5.44842 27.5765 5.922 27.5766 6.39453 27.8721C7.56857 28.7019 8.74236 29.5304 9.91504 30.3584C10.8723 29.5304 11.8303 28.7018 12.7891 27.8721C13.2627 27.5706 13.7373 27.5706 14.2109 27.8721C15.1697 28.7018 16.1277 29.5304 17.085 30.3584C18.2576 29.5304 19.4314 28.7019 20.6055 27.8721C21.078 27.5766 21.5516 27.5765 22.0264 27.8721C22.8768 28.4642 23.7277 29.0563 24.5781 29.6484C24.6212 20.6055 24.6212 11.5625 24.5781 2.51953C24.5198 2.44193 24.444 2.38747 24.3516 2.35742C17.1172 2.32513 9.88281 2.31443 2.64844 2.3252ZM7.16992 18.4092C9.34465 18.3984 11.5198 18.4091 13.6943 18.4414C14.6236 18.7517 14.8922 19.3653 14.501 20.2822C14.309 20.5339 14.0618 20.6954 13.7588 20.7666C11.5196 20.8097 9.28023 20.8097 7.04102 20.7666C6.18945 20.386 5.96292 19.7724 6.3623 18.9258C6.58046 18.6614 6.84993 18.4892 7.16992 18.4092ZM7.04102 12.2725C11.3472 12.2617 15.6539 12.2724 19.96 12.3047C20.8112 12.6852 21.0369 13.2991 20.6377 14.1455C20.4333 14.4146 20.1639 14.577 19.8301 14.6309C15.6101 14.6739 11.3899 14.6739 7.16992 14.6309C6.35075 14.4027 6.03859 13.8747 6.2334 13.0479C6.37602 12.6498 6.64538 12.3911 7.04102 12.2725ZM6.97559 6.13672C11.3248 6.12595 15.6743 6.13665 20.0234 6.16895C20.53 6.37378 20.81 6.75024 20.8633 7.29883C20.8397 7.87087 20.5596 8.24812 20.0234 8.42969C15.6743 8.47277 11.3247 8.47277 6.97559 8.42969C6.43963 8.24807 6.16029 7.87074 6.13672 7.29883C6.19754 6.74482 6.47695 6.35751 6.97559 6.13672Z" fill="black"/>
</svg>
