<svg width="35" height="35" viewBox="0 0 35 35" fill="none" xmlns="http://www.w3.org/2000/svg">
<path d="M4.24902 5.71289C8.9604 5.70068 13.6726 5.71241 18.3838 5.74902C19.0761 6.06769 19.2833 6.59262 19.0059 7.32324C18.8767 7.54086 18.6938 7.7002 18.457 7.7998C13.7684 7.80193 9.08066 7.85079 4.39551 7.94629C3.34091 8.24439 2.64519 8.91551 2.30859 9.95996C2.22411 12.532 2.18797 15.1078 2.19922 17.6865C2.21143 20.164 2.22314 22.6416 2.23535 25.1191C2.49006 26.2525 3.1614 27.0213 4.24902 27.4258C6.24777 27.5203 8.2502 27.569 10.2549 27.5723C10.7792 27.7805 11.047 28.1714 11.0596 28.7441C10.9847 29.9031 10.9486 31.0627 10.9502 32.2227C11.0825 32.3614 11.2411 32.3984 11.4258 32.333C13.4876 30.7529 15.5633 29.19 17.6514 27.6455C20.3076 27.5493 22.9687 27.5004 25.6338 27.499C26.9008 27.2568 27.6943 26.5125 28.0137 25.2656C28.0156 22.0895 28.0644 18.9157 28.1602 15.7451C28.4371 15.1738 28.8885 14.9665 29.5146 15.123C29.893 15.2085 30.1254 15.4401 30.2109 15.8184C30.2598 19.0162 30.2598 22.2143 30.2109 25.4121C29.8827 27.3272 28.8199 28.6576 27.0244 29.4033C26.598 29.5569 26.1589 29.6547 25.707 29.6963C23.3149 29.7207 20.9224 29.7451 18.5303 29.7695C16.5774 31.2342 14.6238 32.6994 12.6709 34.1641C11.2922 34.8895 10.1081 34.6572 9.11914 33.4678C8.87321 33.0106 8.73935 32.522 8.7168 32.0029C8.78055 31.2478 8.80496 30.4913 8.79004 29.7334C7.374 29.7456 5.95762 29.7329 4.54199 29.6963C2.18631 29.3421 0.70917 28.0117 0.111328 25.7051C0.0273101 23.0467 -0.00883397 20.3857 0.00195312 17.7227C-0.00859103 15.0354 0.0275506 12.3501 0.111328 9.66699C0.68287 7.49696 2.06239 6.17916 4.24902 5.71289ZM9.30176 19.2607C11.5232 19.2485 13.7446 19.2603 15.9658 19.2969C16.7652 19.6086 16.9976 20.1586 16.6621 20.9453C16.4889 21.192 16.2564 21.3503 15.9658 21.4209C13.7445 21.4697 11.523 21.4697 9.30176 21.4209C8.48887 21.075 8.28163 20.5016 8.67969 19.7002C8.84969 19.4883 9.05688 19.3417 9.30176 19.2607ZM9.52246 13.915C13.4283 13.9028 17.3346 13.9146 21.2402 13.9512C22.174 14.1963 22.4545 14.77 22.082 15.6719C21.9402 15.8626 21.7573 15.9975 21.5332 16.0752C17.4322 16.124 13.3305 16.124 9.22949 16.0752C8.63894 15.8094 8.40741 15.3572 8.53418 14.7197C8.69125 14.2335 9.0206 13.9655 9.52246 13.915ZM27.8311 0C28.4037 0.0159933 28.9042 0.211382 29.332 0.585938C29.8904 1.44621 30.4395 2.3129 30.9795 3.18555C31.9607 3.41108 32.9375 3.65528 33.9092 3.91797C35.0147 4.5926 35.2706 5.50886 34.6777 6.66504C34.04 7.37589 33.4293 8.10773 32.8467 8.86133C32.8625 9.83965 32.924 10.8164 33.0303 11.791C32.8147 13.1317 32.0332 13.7051 30.6865 13.5117C29.7743 13.1471 28.8589 12.7934 27.9404 12.4502C27.0219 12.7934 26.1065 13.1471 25.1943 13.5117C24.088 13.6973 23.3436 13.2703 22.9609 12.2305C22.961 11.0821 22.9855 9.9344 23.0342 8.78809C22.4484 8.10472 21.8621 7.42165 21.2764 6.73828C20.6735 5.78277 20.7829 4.91536 21.6055 4.1377C21.8043 3.998 22.0241 3.90031 22.2646 3.84473L24.9014 3.18555C25.4108 2.39849 25.9112 1.60507 26.4023 0.805664C26.7735 0.333732 27.2502 0.0650567 27.8311 0ZM27.9033 2.56348C27.4127 3.41032 26.8761 4.22822 26.293 5.0166C25.3311 5.33035 24.3543 5.59898 23.3633 5.82227C23.8895 6.37526 24.3898 6.94891 24.8643 7.54297C25.142 7.82617 25.3012 8.16825 25.3408 8.56836C25.236 9.44437 25.1745 10.3235 25.1572 11.2051C26.0691 10.7675 27.009 10.4011 27.9766 10.1064C28.9057 10.4492 29.8338 10.7911 30.7598 11.1318C30.6674 10.1326 30.6313 9.13132 30.6504 8.12891C31.2173 7.3177 31.8397 6.5487 32.5176 5.82227C31.5266 5.59898 30.5498 5.33035 29.5879 5.0166C29.0158 4.20045 28.454 3.38268 27.9033 2.56348Z" fill="black"/>
</svg>
