<svg width="26" height="26" viewBox="0 0 26 26" fill="none" xmlns="http://www.w3.org/2000/svg">
<path fill-rule="evenodd" clip-rule="evenodd" d="M26 9.49609C26 10.1562 26 10.8164 26 11.4766C25.4253 15.6478 23.2078 18.5677 19.3477 20.2363C15.6861 21.5184 12.2838 21.036 9.14062 18.7891C6.81383 21.0905 4.49485 23.401 2.18359 25.7207C2.01769 25.8289 1.84844 25.9219 1.67578 26C1.42188 26 1.16797 26 0.914062 26C0.490902 25.8138 0.186214 25.5091 0 25.0859C0 24.832 0 24.5781 0 24.3242C0.0824184 24.1262 0.19241 23.94 0.330078 23.7656C2.63286 21.4713 4.92649 19.1692 7.21094 16.8594C4.96392 13.7154 4.4815 10.3131 5.76367 6.65234C7.43234 2.79211 10.3523 0.574661 14.5234 0C15.2005 0 15.8776 0 16.5547 0C20.5059 0.524238 23.3581 2.57242 25.1113 6.14453C25.5677 7.22561 25.8639 8.3428 26 9.49609ZM23.3594 9.69922C23.5169 13.0666 22.1627 15.6141 19.2969 17.3418C16.7917 18.5944 14.2864 18.5944 11.7812 17.3418C8.90947 15.6192 7.56377 13.0717 7.74414 9.69922C8.09291 6.9943 9.43861 4.95459 11.7812 3.58008C14.2864 2.32747 16.7917 2.32747 19.2969 3.58008C21.6358 4.96545 22.9899 7.00517 23.3594 9.69922Z" fill="#B3B3B3"/>
</svg>
