<svg width="29" height="29" viewBox="0 0 29 29" fill="none" xmlns="http://www.w3.org/2000/svg">
<path fill-rule="evenodd" clip-rule="evenodd" d="M29 10.5918C29 11.3281 29 12.0645 29 12.8008C28.359 17.4533 25.8856 20.7101 21.5801 22.5713C17.4961 24.0013 13.7011 23.4632 10.1953 20.957C7.60004 23.524 5.01349 26.1011 2.43555 28.6885C2.2505 28.8091 2.06172 28.9129 1.86914 29C1.58594 29 1.30273 29 1.01953 29C0.547545 28.7923 0.207701 28.4525 0 27.9805C0 27.6973 0 27.4141 0 27.1309C0.0919277 26.91 0.214611 26.7023 0.368164 26.5078C2.93665 23.9488 5.49493 21.381 8.04297 18.8047C5.53668 15.298 4.99859 11.503 6.42871 7.41992C8.28992 3.11428 11.5468 0.640968 16.1992 0C16.9544 0 17.7097 0 18.4648 0C22.872 0.584727 26.0533 2.86923 28.0088 6.85352C28.5178 8.05934 28.8482 9.30543 29 10.5918ZM26.0547 10.8184C26.2303 14.5743 24.7199 17.4157 21.5234 19.3428C18.7292 20.7399 15.9349 20.7399 13.1406 19.3428C9.93748 17.4214 8.43651 14.5799 8.6377 10.8184C9.0267 7.80134 10.5277 5.52628 13.1406 3.99316C15.9349 2.59603 18.7292 2.59603 21.5234 3.99316C24.1322 5.53838 25.6426 7.81346 26.0547 10.8184Z" fill="black"/>
</svg>
