<svg width="33" height="22" viewBox="0 0 33 22" fill="none" xmlns="http://www.w3.org/2000/svg">
<path opacity="0.966" d="M10.4297 1.4104C14.4645 -0.470108 18.4994 -0.470082 22.5342 1.4104C26.7265 3.52789 30.2036 6.51243 32.9648 10.3645V11.1516C30.2036 15.0037 26.7265 17.9882 22.5342 20.1057C18.4993 21.9862 14.4644 21.9862 10.4297 20.1057C6.23752 17.9882 2.76108 15.0035 0 11.1516V10.3645C2.76108 6.51263 6.23753 3.52784 10.4297 1.4104ZM15.7744 2.29614C13.7991 2.51865 11.9316 3.11975 10.1729 4.09985C7.28835 5.81876 4.76639 7.99462 2.60742 10.6272C2.57398 10.7445 2.59548 10.8541 2.67188 10.9553C3.51547 11.9462 4.40621 12.8975 5.34375 13.8088C7.38271 15.7666 9.70042 17.2973 12.2969 18.4006C15.3358 19.56 18.3412 19.4722 21.3115 18.1379C24.8946 16.4015 27.9209 13.9415 30.3896 10.7581C28.372 8.18747 25.989 6.05593 23.2422 4.36255C20.9497 2.93682 18.4606 2.24795 15.7744 2.29614ZM16.0312 4.06665C18.6168 4.00059 20.624 5.05082 22.0518 7.21606C23.4458 9.76338 23.3598 12.2565 21.7939 14.6946C20.0625 16.901 17.8192 17.7646 15.0654 17.2854C11.843 16.3516 10.1263 14.1757 9.91504 10.7581C10.0508 7.9877 11.3172 5.96461 13.7139 4.6897C14.4625 4.35703 15.235 4.14938 16.0312 4.06665ZM15.9668 6.36255C14.8616 6.55716 13.9277 7.08279 13.166 7.93774C11.8357 9.81813 11.8355 11.699 13.166 13.5793C14.8224 15.3056 16.7005 15.5999 18.7998 14.4641C20.7079 13.0043 21.2344 11.1351 20.3779 8.85571C19.4133 7.11208 17.9423 6.28081 15.9668 6.36255Z" fill="black"/>
</svg>
