<svg width="52" height="58" viewBox="0 0 52 58" fill="none" xmlns="http://www.w3.org/2000/svg">
<path d="M10.9911 29.5703C11.67 28.3825 12.6181 28.1035 13.8358 28.7334C14.1266 28.9496 14.3317 29.2286 14.4501 29.5703C14.9534 31.472 15.4736 33.3689 16.0116 35.2607C16.6965 37.0617 17.8688 38.4567 19.5272 39.4453C21.2295 40.0995 22.9406 40.7324 24.66 41.3428C25.7013 42.347 25.7014 43.3513 24.66 44.3555C22.9406 44.9658 21.2295 45.5978 19.5272 46.252C17.8689 47.2406 16.6965 48.6356 16.0116 50.4365C15.468 52.5 14.8731 54.5462 14.2264 56.5742C14.0335 56.7863 13.8292 56.9723 13.6132 57.1318H11.828C11.4534 56.8864 11.1743 56.5517 10.9911 56.1279C10.4558 54.1129 9.89784 52.1036 9.31726 50.1016C8.57836 48.47 7.44378 47.1867 5.91394 46.252C4.21171 45.5978 2.50055 44.9658 0.781128 44.3555C-0.260329 43.3512 -0.260329 42.347 0.781128 41.3428C2.50059 40.7324 4.21168 40.0995 5.91394 39.4453C7.57214 38.4567 8.74373 37.0616 9.42859 35.2607C9.96661 33.3688 10.4878 31.472 10.9911 29.5703ZM42.4022 49.9902C43.5022 49.7505 44.3016 50.1227 44.8007 51.1064C44.8751 52.1478 44.8751 53.1892 44.8007 54.2305C44.3016 55.2326 43.5022 55.5864 42.4022 55.291C41.9001 55.0865 41.5462 54.7326 41.3417 54.2305C41.2673 53.1892 41.2673 52.1477 41.3417 51.1064C41.5673 50.6021 41.9212 50.2298 42.4022 49.9902ZM37.0458 46.4199C38.0878 46.4014 39.1292 46.4198 40.1698 46.4756C41.3491 47.1671 41.6281 48.1158 41.0067 49.3213C40.7905 49.6119 40.5113 49.8162 40.1698 49.9346C39.1285 50.009 38.0871 50.009 37.0458 49.9346C36.0435 49.4355 35.6896 48.6354 35.9852 47.5352C36.2108 47.0309 36.5648 46.6595 37.0458 46.4199ZM45.9725 46.4199C47.0145 46.4014 48.0559 46.4198 49.0966 46.4756C50.0988 46.9747 50.4527 47.7748 50.1571 48.875C49.9525 49.3769 49.5986 49.7301 49.0966 49.9346C48.0553 50.009 47.0138 50.009 45.9725 49.9346C44.7942 49.2502 44.5152 48.3015 45.1356 47.0889C45.3715 46.7965 45.6506 46.5738 45.9725 46.4199ZM12.6083 37.1582C11.5902 39.6763 9.87927 41.573 7.47546 42.8486C9.85937 44.1557 11.6082 46.0533 12.7206 48.54C13.833 46.0533 15.5808 44.1557 17.9647 42.8486C16.1191 41.877 14.65 40.5012 13.5575 38.7207C13.3197 38.13 13.0027 37.6089 12.6083 37.1582ZM42.4022 41.0635C43.5023 40.8237 44.3016 41.196 44.8007 42.1797C44.8751 43.221 44.8751 44.2624 44.8007 45.3037C44.3016 46.3058 43.5022 46.6596 42.4022 46.3643C41.9001 46.1597 41.5462 45.8058 41.3417 45.3037C41.2673 44.2624 41.2673 43.221 41.3417 42.1797C41.5673 41.6753 41.9212 41.3031 42.4022 41.0635ZM33.0292 0C33.5101 0.239544 33.8632 0.611945 34.0887 1.11621C34.8723 4.10163 35.6908 7.07723 36.5438 10.043C37.8747 13.6428 40.3107 16.1906 43.8524 17.6865C46.0251 18.3859 48.1823 19.1297 50.3241 19.918C51.3655 20.9222 51.3655 21.9264 50.3241 22.9307C48.1823 23.719 46.0252 24.4637 43.8524 25.1631C40.3108 26.659 37.8747 29.2068 36.5438 32.8066C35.6908 35.7724 34.8723 38.748 34.0887 41.7334C33.7755 42.5128 33.199 42.8843 32.3593 42.8486C31.5195 42.8843 30.943 42.5128 30.6298 41.7334C29.8462 38.748 29.0277 35.7724 28.1747 32.8066C26.8987 29.5597 24.7231 27.1226 21.6473 25.4971C19.2309 24.642 16.8133 23.7865 14.3944 22.9307C13.353 21.9264 13.353 20.9222 14.3944 19.918C16.5361 19.1297 18.6935 18.3859 20.8661 17.6865C24.4077 16.1906 26.8438 13.6427 28.1747 10.043C29.0277 7.07722 29.8462 4.10164 30.6298 1.11621C30.8554 0.611906 31.2084 0.239542 31.6893 0H33.0292ZM32.2479 9.15039C30.7801 15.0813 27.2087 19.1728 21.535 21.4248C27.1913 23.697 30.7996 27.7886 32.3593 33.6992C33.9188 27.7887 37.5265 23.697 43.1825 21.4248C42.0979 21.0126 41.0565 20.51 40.0585 19.918C36.1112 17.418 33.5817 13.8844 32.4706 9.31738C32.4331 9.20277 32.3589 9.14717 32.2479 9.15039ZM6.69421 14.2832C7.79444 14.0433 8.59451 14.4156 9.09363 15.3994C9.16803 16.4407 9.16805 17.4821 9.09363 18.5234C8.59451 19.5257 7.79446 19.8786 6.69421 19.583C6.19236 19.3785 5.83915 19.0254 5.63464 18.5234C5.56026 17.4821 5.56028 16.4407 5.63464 15.3994C5.86025 14.8952 6.21333 14.5228 6.69421 14.2832ZM1.33875 10.7129C2.38076 10.6943 3.42208 10.7128 4.46277 10.7686C5.46492 11.2676 5.8187 12.067 5.52332 13.167C5.31875 13.6691 4.9649 14.023 4.46277 14.2275C3.42144 14.302 2.38008 14.3019 1.33875 14.2275C0.336466 13.7284 -0.0173794 12.9284 0.278198 11.8281C0.503858 11.3238 0.857718 10.9524 1.33875 10.7129ZM10.2655 10.7129C11.3075 10.6943 12.3489 10.7128 13.3895 10.7686C14.3917 11.2676 14.7455 12.067 14.4501 13.167C14.2455 13.6691 13.8917 14.023 13.3895 14.2275C12.3482 14.3019 11.3068 14.3019 10.2655 14.2275C9.26325 13.7284 8.90937 12.9284 9.20496 11.8281C9.43057 11.3238 9.78449 10.9524 10.2655 10.7129ZM6.69421 5.35645C7.79444 5.11649 8.59451 5.4888 9.09363 6.47266C9.16803 7.51397 9.16805 8.55537 9.09363 9.59668C8.59451 10.5989 7.79445 10.9518 6.69421 10.6562C6.19237 10.4517 5.83915 10.0986 5.63464 9.59668C5.56026 8.55536 5.56028 7.51397 5.63464 6.47266C5.86025 5.96841 6.21334 5.59599 6.69421 5.35645Z" fill="#D185BD"/>
</svg>
