<svg width="31" height="30" viewBox="0 0 31 30" fill="none" xmlns="http://www.w3.org/2000/svg">
<path d="M15.0865 0.0299702C15.0865 0.0449791 15.0145 0.0599861 14.9244 0.0599861C14.8344 0.0599861 14.7504 0.0719929 14.7414 0.0900021C14.7323 0.105009 14.6843 0.120016 14.6333 0.120016C14.5853 0.120016 14.5463 0.132023 14.5463 0.150032C14.5463 0.165041 14.5282 0.180048 14.5042 0.180048C14.4532 0.180048 14.2041 0.306112 14.1921 0.336128C14.1861 0.351135 14.1591 0.36014 14.129 0.36014C14.102 0.36014 14.06 0.387156 14.036 0.420172C14.012 0.453188 13.976 0.480202 13.9549 0.480202C13.9099 0.480202 13.5858 0.801369 13.5858 0.846392C13.5858 0.864401 13.5617 0.900419 13.5317 0.927433C13.5047 0.954447 13.4627 1.01148 13.4387 1.0565C13.4147 1.10452 13.3847 1.14054 13.3696 1.14054C13.3576 1.14054 13.3456 1.16756 13.3456 1.20057C13.3456 1.23359 13.3336 1.2606 13.3156 1.2606C13.3006 1.2606 13.2856 1.28762 13.2856 1.32064C13.2856 1.35365 13.2736 1.38067 13.2556 1.38067C13.2406 1.38067 13.2256 1.40768 13.2256 1.4407C13.2256 1.47371 13.2136 1.50073 13.1956 1.50073C13.1805 1.50073 13.1655 1.52774 13.1655 1.56076C13.1655 1.59378 13.1535 1.62079 13.1355 1.62079C13.1205 1.62079 13.1055 1.6478 13.1055 1.68082C13.1055 1.71384 13.0935 1.74085 13.0755 1.74085C13.0605 1.74085 13.0455 1.75886 13.0455 1.77687C13.0455 1.79788 12.9374 2.03801 12.8024 2.31115C12.3311 3.26564 12.2651 3.40671 12.2651 3.44273C12.2651 3.46374 12.2531 3.48175 12.2351 3.48175C12.2201 3.48175 12.205 3.50876 12.205 3.54178C12.205 3.5748 12.193 3.60181 12.175 3.60181C12.16 3.60181 12.145 3.62883 12.145 3.66184C12.145 3.69486 12.133 3.72187 12.115 3.72187C12.1 3.72187 12.085 3.74889 12.085 3.7819C12.085 3.81492 12.073 3.84194 12.055 3.84194C12.04 3.84194 12.025 3.86895 12.025 3.90197C12.025 3.93498 12.0129 3.962 11.9949 3.962C11.9799 3.962 11.9649 3.98901 11.9649 4.02203C11.9649 4.05505 11.9529 4.08206 11.9349 4.08206C11.9199 4.08206 11.9049 4.10907 11.9049 4.14209C11.9049 4.17511 11.8929 4.20212 11.8749 4.20212C11.8599 4.20212 11.8449 4.22914 11.8449 4.26215C11.8449 4.29517 11.8329 4.32218 11.8148 4.32218C11.7998 4.32218 11.7848 4.3492 11.7848 4.38222C11.7848 4.41523 11.7728 4.44225 11.7548 4.44225C11.7398 4.44225 11.7248 4.46926 11.7248 4.50228C11.7248 4.53529 11.7128 4.56231 11.6948 4.56231C11.6798 4.56231 11.6648 4.58932 11.6648 4.62234C11.6648 4.65536 11.6528 4.68237 11.6347 4.68237C11.6197 4.68237 11.6047 4.70938 11.6047 4.7424C11.6047 4.77542 11.5927 4.80243 11.5747 4.80243C11.5597 4.80243 11.5447 4.82944 11.5447 4.86246C11.5447 4.89548 11.5327 4.92249 11.5147 4.92249C11.4997 4.92249 11.4847 4.94951 11.4847 4.98252C11.4847 5.01554 11.4727 5.04255 11.4547 5.04255C11.4396 5.04255 11.4246 5.06957 11.4246 5.10259C11.4246 5.1356 11.4126 5.16262 11.3946 5.16262C11.3796 5.16262 11.3646 5.18963 11.3646 5.22265C11.3646 5.25566 11.3526 5.28268 11.3346 5.28268C11.3196 5.28268 11.3046 5.30969 11.3046 5.34271C11.3046 5.37573 11.2926 5.40274 11.2746 5.40274C11.2596 5.40274 11.2445 5.42975 11.2445 5.46277C11.2445 5.49579 11.2325 5.5228 11.2145 5.5228C11.1995 5.5228 11.1845 5.54982 11.1845 5.58283C11.1845 5.61585 11.1725 5.64286 11.1545 5.64286C11.1395 5.64286 11.1245 5.66988 11.1245 5.7029C11.1245 5.73591 11.1125 5.76293 11.0945 5.76293C11.0795 5.76293 11.0645 5.78994 11.0645 5.82296C11.0645 5.85597 11.0524 5.88299 11.0344 5.88299C11.0194 5.88299 11.0044 5.91 11.0044 5.94302C11.0044 5.97604 10.9924 6.00305 10.9744 6.00305C10.9594 6.00305 10.9444 6.03006 10.9444 6.06308C10.9444 6.0961 10.9324 6.12311 10.9144 6.12311C10.8994 6.12311 10.8844 6.15013 10.8844 6.18314C10.8844 6.21616 10.8724 6.24317 10.8543 6.24317C10.8393 6.24317 10.8243 6.27019 10.8243 6.30321C10.8243 6.33622 10.8123 6.36324 10.7943 6.36324C10.7793 6.36324 10.7643 6.38124 10.7643 6.39925C10.7643 6.42027 10.6713 6.62737 10.5572 6.85849C10.4431 7.08961 10.275 7.43479 10.182 7.62389C10.089 7.81298 9.9899 8.00808 9.95989 8.05911C9.89385 8.17317 9.65673 8.40429 9.6027 8.40429C9.58169 8.40429 9.56368 8.41629 9.56368 8.4343C9.56368 8.44931 9.52466 8.46432 9.47363 8.46432C9.42561 8.46432 9.38359 8.47633 9.38359 8.49434C9.38359 8.50934 9.31155 8.52435 9.22151 8.52435C9.13146 8.52435 9.04741 8.53636 9.03841 8.55437C9.02941 8.56937 8.93936 8.58438 8.84331 8.58438C8.74726 8.58438 8.65721 8.59639 8.64821 8.6144C8.6392 8.6294 8.54315 8.64441 8.4351 8.64441C8.32704 8.64441 8.243 8.65642 8.243 8.67443C8.243 8.69244 8.15295 8.70444 8.03289 8.70444C7.91283 8.70444 7.82278 8.71645 7.82278 8.73446C7.82278 8.75247 7.73274 8.76447 7.61268 8.76447C7.49261 8.76447 7.40257 8.77648 7.40257 8.79449C7.40257 8.8125 7.31252 8.8245 7.19246 8.8245C7.0724 8.8245 6.98235 8.83651 6.98235 8.85452C6.98235 8.87253 6.8923 8.88454 6.77224 8.88454C6.65218 8.88454 6.56213 8.89654 6.56213 8.91455C6.56213 8.93256 6.47809 8.94457 6.37003 8.94457C6.26198 8.94457 6.16593 8.95657 6.15692 8.97458C6.14792 8.98959 6.05187 9.0046 5.94682 9.0046C5.84176 9.0046 5.74571 9.0166 5.73671 9.03461C5.7277 9.04962 5.63766 9.06463 5.54161 9.06463C5.44556 9.06463 5.35551 9.07664 5.34651 9.09464C5.3375 9.10965 5.24145 9.12466 5.1364 9.12466C5.03134 9.12466 4.93529 9.13667 4.92629 9.15467C4.91729 9.16968 4.82124 9.18469 4.71318 9.18469C4.60512 9.18469 4.52108 9.1967 4.52108 9.21471C4.52108 9.23272 4.43103 9.24472 4.31097 9.24472C4.19091 9.24472 4.10086 9.25673 4.10086 9.27474C4.10086 9.29275 4.01082 9.30475 3.89076 9.30475C3.77069 9.30475 3.68065 9.31676 3.68065 9.33477C3.68065 9.35278 3.5906 9.36478 3.47054 9.36478C3.35048 9.36478 3.26043 9.37679 3.26043 9.3948C3.26043 9.41281 3.17038 9.42481 3.05032 9.42481C2.93026 9.42481 2.84021 9.43682 2.84021 9.45483C2.84021 9.47284 2.75617 9.48485 2.64812 9.48485C2.54006 9.48485 2.44401 9.49685 2.43501 9.51486C2.426 9.52987 2.32995 9.54488 2.2249 9.54488C2.11984 9.54488 2.02379 9.55688 2.01479 9.57489C2.00578 9.5899 1.92474 9.60491 1.8347 9.60491C1.74465 9.60491 1.66361 9.61691 1.6546 9.63492C1.6456 9.64993 1.59757 9.66494 1.54655 9.66494C1.49852 9.66494 1.4595 9.67694 1.4595 9.69495C1.4595 9.70996 1.42048 9.72497 1.36946 9.72497C1.32143 9.72497 1.27941 9.73697 1.27941 9.75499C1.27941 9.76999 1.2524 9.785 1.21938 9.785C1.18636 9.785 1.15935 9.79701 1.15935 9.81502C1.15935 9.83002 1.13233 9.84503 1.09932 9.84503C1.0663 9.84503 1.03929 9.85704 1.03929 9.87505C1.03929 9.89005 1.02128 9.90506 1.00027 9.90506C0.979255 9.90506 0.934232 9.92908 0.901215 9.95909C0.871199 9.98911 0.796161 10.0461 0.739131 10.0852C0.607063 10.1782 0.532024 10.2532 0.438976 10.3853C0.399956 10.4423 0.342927 10.5174 0.312911 10.5474C0.282896 10.5804 0.258883 10.6254 0.258883 10.6464C0.258883 10.6675 0.246877 10.6855 0.228868 10.6855C0.21386 10.6855 0.198853 10.7125 0.198853 10.7455C0.198853 10.7785 0.186846 10.8055 0.168837 10.8055C0.153829 10.8055 0.138822 10.8325 0.138822 10.8656C0.138822 10.8986 0.126815 10.9256 0.108806 10.9256C0.0937984 10.9256 0.0787906 10.9646 0.0787906 11.0126C0.0787906 11.0607 0.0607813 11.1057 0.0427721 11.1147C-0.0142574 11.1327 -0.0142574 12.5794 0.0427721 12.6005C0.0607813 12.6065 0.0787906 12.6305 0.0787906 12.6545C0.0787906 12.6995 0.0998015 12.7505 0.180843 12.8916C0.210859 12.9396 0.240874 13.0057 0.249879 13.0327C0.258883 13.0627 0.276893 13.0867 0.291901 13.0867C0.306908 13.0867 0.318914 13.1077 0.318914 13.1317C0.318914 13.1798 1.93975 14.8126 2.34496 15.1728C2.47403 15.2868 3.0023 15.8001 3.51556 16.3134C4.02883 16.8236 4.5571 17.3369 4.68617 17.454C5.06736 17.7931 6.14192 18.8767 6.14192 18.9247C6.14192 18.9487 6.15692 18.9697 6.17193 18.9697C6.18994 18.9697 6.20195 19.0028 6.20195 19.0418C6.20195 19.0838 6.21696 19.1258 6.23196 19.1348C6.27098 19.1588 6.27098 19.6511 6.23196 19.6751C6.21696 19.6841 6.20195 19.7591 6.20195 19.8402C6.20195 19.9212 6.18994 19.9963 6.17193 20.0053C6.15692 20.0143 6.14192 20.0953 6.14192 20.1854C6.14192 20.2754 6.12991 20.3565 6.1119 20.3655C6.09689 20.3745 6.08189 20.4585 6.08189 20.5486C6.08189 20.6386 6.06988 20.7106 6.05187 20.7106C6.03386 20.7106 6.02185 20.7917 6.02185 20.8907C6.02185 20.9898 6.00985 21.0708 5.99184 21.0708C5.97383 21.0708 5.96182 21.1519 5.96182 21.2509C5.96182 21.35 5.94982 21.431 5.93181 21.431C5.9168 21.431 5.90179 21.503 5.90179 21.5931C5.90179 21.6831 5.88679 21.7672 5.87178 21.7762C5.85377 21.7852 5.84176 21.8602 5.84176 21.9413C5.84176 22.0223 5.82675 22.0973 5.81175 22.1064C5.79374 22.1154 5.78173 22.1964 5.78173 22.2864C5.78173 22.3765 5.76672 22.4575 5.75172 22.4665C5.73371 22.4755 5.7217 22.5596 5.7217 22.6496C5.7217 22.7397 5.70969 22.8117 5.69168 22.8117C5.67368 22.8117 5.66167 22.8928 5.66167 22.9918C5.66167 23.0909 5.64966 23.1719 5.63165 23.1719C5.61364 23.1719 5.60164 23.2529 5.60164 23.352C5.60164 23.451 5.58963 23.5321 5.57162 23.5321C5.55661 23.5321 5.54161 23.6041 5.54161 23.6942C5.54161 23.7842 5.5266 23.8683 5.51159 23.8773C5.49358 23.8863 5.48158 23.9613 5.48158 24.0424C5.48158 24.1234 5.46957 24.1984 5.45156 24.2074C5.43655 24.2164 5.42155 24.2975 5.42155 24.3875C5.42155 24.4776 5.40654 24.5586 5.39153 24.5676C5.37352 24.5766 5.36151 24.6607 5.36151 24.7507C5.36151 24.8408 5.34951 24.9128 5.3315 24.9128C5.31349 24.9128 5.30148 24.9938 5.30148 25.0929C5.30148 25.1919 5.28948 25.273 5.27147 25.273C5.25346 25.273 5.24145 25.354 5.24145 25.4531C5.24145 25.5521 5.22945 25.6332 5.21144 25.6332C5.19643 25.6332 5.18142 25.7052 5.18142 25.7953C5.18142 25.8853 5.16942 25.9693 5.15141 25.9783C5.1364 25.9874 5.12139 26.0624 5.12139 26.1434C5.12139 26.2245 5.10938 26.2995 5.09138 26.3085C5.07637 26.3175 5.06136 26.3986 5.06136 26.4886C5.06136 26.5787 5.04635 26.6597 5.03134 26.6687C5.01333 26.6777 5.00133 26.7738 5.00133 26.8818C5.00133 26.9899 4.98932 27.0739 4.97131 27.0739C4.93229 27.0739 4.93229 27.5452 4.97131 27.5692C4.98932 27.5782 5.00133 27.6592 5.00133 27.7493C5.00133 27.8393 5.01634 27.9204 5.03134 27.9294C5.04935 27.9384 5.06136 27.9804 5.06136 28.0194C5.06136 28.0584 5.07637 28.1004 5.09138 28.1094C5.10938 28.1185 5.12139 28.1605 5.12139 28.2025C5.12139 28.2415 5.1364 28.2745 5.15141 28.2745C5.16942 28.2745 5.18142 28.3015 5.18142 28.3346C5.18142 28.3676 5.19643 28.3946 5.21144 28.3946C5.22945 28.3946 5.24145 28.4126 5.24145 28.4336C5.24145 28.4546 5.26847 28.5027 5.30148 28.5387C5.3345 28.5747 5.36151 28.6167 5.36151 28.6317C5.36151 28.6797 5.86878 29.175 5.9168 29.175C5.94081 29.175 5.96182 29.187 5.96182 29.202C5.96182 29.217 5.98584 29.235 6.01585 29.244C6.04287 29.253 6.1089 29.2831 6.15692 29.3131C6.301 29.3941 6.34902 29.4151 6.39705 29.4151C6.42106 29.4151 6.44207 29.4271 6.44207 29.4451C6.44207 29.4601 6.48709 29.4752 6.54412 29.4752C6.60115 29.4752 6.65818 29.4902 6.66719 29.5052C6.67619 29.5232 6.76624 29.5352 6.86229 29.5352C6.95834 29.5352 7.04838 29.5472 7.05739 29.5652C7.06639 29.5802 7.15044 29.5952 7.24048 29.5952C7.33053 29.5952 7.40257 29.5802 7.40257 29.5652C7.40257 29.5472 7.48661 29.5352 7.59467 29.5352C7.70272 29.5352 7.79877 29.5232 7.80778 29.5052C7.81678 29.4902 7.86481 29.4752 7.91583 29.4752C7.96386 29.4752 8.00288 29.4601 8.00288 29.4451C8.00288 29.4271 8.03589 29.4151 8.07491 29.4151C8.11693 29.4151 8.15896 29.4001 8.16796 29.3851C8.17697 29.3671 8.21299 29.3551 8.243 29.3551C8.27302 29.3551 8.30303 29.3461 8.30903 29.3311C8.31504 29.3191 8.37507 29.2801 8.4441 29.241C8.51614 29.205 8.6302 29.145 8.69924 29.106C8.77127 29.0699 8.8343 29.0309 8.83731 29.0159C8.84331 29.0039 8.87333 28.9949 8.90634 28.9949C8.93636 28.9949 8.96337 28.9799 8.96337 28.9649C8.96337 28.9469 8.99039 28.9349 9.0234 28.9349C9.05642 28.9349 9.08343 28.9199 9.08343 28.9049C9.08343 28.8868 9.11045 28.8748 9.14346 28.8748C9.17648 28.8748 9.2035 28.8598 9.2035 28.8448C9.2035 28.8268 9.23051 28.8148 9.26353 28.8148C9.29654 28.8148 9.32356 28.7998 9.32356 28.7848C9.32356 28.7668 9.35057 28.7548 9.38359 28.7548C9.4166 28.7548 9.44362 28.7398 9.44362 28.7248C9.44362 28.7068 9.47063 28.6948 9.50065 28.6948C9.53367 28.6948 9.56368 28.6857 9.56968 28.6707C9.57869 28.6527 9.73477 28.5627 9.91486 28.4726C9.95388 28.4546 9.9839 28.4306 9.9839 28.4156C9.9839 28.4036 10.0109 28.3946 10.0439 28.3946C10.0769 28.3946 10.104 28.3796 10.104 28.3646C10.104 28.3466 10.131 28.3346 10.164 28.3346C10.197 28.3346 10.224 28.3196 10.224 28.3045C10.224 28.2865 10.251 28.2745 10.2841 28.2745C10.3171 28.2745 10.3441 28.2595 10.3441 28.2445C10.3441 28.2265 10.3711 28.2145 10.4041 28.2145C10.4371 28.2145 10.4641 28.1995 10.4641 28.1845C10.4641 28.1665 10.4912 28.1545 10.5242 28.1545C10.5572 28.1545 10.5842 28.1395 10.5842 28.1245C10.5842 28.1064 10.6112 28.0944 10.6412 28.0944C10.6743 28.0944 10.7043 28.0854 10.7103 28.0704C10.7193 28.0524 10.8754 27.9624 11.0555 27.8723C11.0945 27.8543 11.1245 27.8303 11.1245 27.8153C11.1245 27.8033 11.1515 27.7943 11.1845 27.7943C11.2175 27.7943 11.2445 27.7793 11.2445 27.7643C11.2445 27.7463 11.2716 27.7343 11.3046 27.7343C11.3376 27.7343 11.3646 27.7192 11.3646 27.7042C11.3646 27.6862 11.3916 27.6742 11.4246 27.6742C11.4577 27.6742 11.4847 27.6592 11.4847 27.6442C11.4847 27.6262 11.5117 27.6142 11.5447 27.6142C11.5777 27.6142 11.6047 27.5992 11.6047 27.5842C11.6047 27.5662 11.6317 27.5542 11.6648 27.5542C11.6978 27.5542 11.7248 27.5392 11.7248 27.5241C11.7248 27.5061 11.7518 27.4941 11.7818 27.4941C11.8148 27.4941 11.8449 27.4851 11.8509 27.4701C11.8599 27.4521 12.0159 27.3621 12.196 27.272C12.2351 27.254 12.2651 27.23 12.2651 27.215C12.2651 27.203 12.2921 27.194 12.3251 27.194C12.3581 27.194 12.3851 27.179 12.3851 27.164C12.3851 27.146 12.4122 27.1339 12.4452 27.1339C12.4782 27.1339 12.5052 27.1189 12.5052 27.1039C12.5052 27.0859 12.5322 27.0739 12.5652 27.0739C12.5982 27.0739 12.6253 27.0589 12.6253 27.0439C12.6253 27.0259 12.6523 27.0139 12.6853 27.0139C12.7183 27.0139 12.7453 26.9989 12.7453 26.9839C12.7453 26.9659 12.7723 26.9539 12.8054 26.9539C12.8384 26.9539 12.8654 26.9388 12.8654 26.9238C12.8654 26.9058 12.8924 26.8938 12.9224 26.8938C12.9554 26.8938 12.9854 26.8848 12.9914 26.8698C12.9975 26.8578 13.0545 26.8188 13.1205 26.7858C13.1865 26.7497 13.3006 26.6897 13.3756 26.6507C13.4507 26.6117 13.5167 26.5697 13.5197 26.5546C13.5257 26.5426 13.5557 26.5336 13.5888 26.5336C13.6188 26.5336 13.6458 26.5186 13.6458 26.5036C13.6458 26.4856 13.6728 26.4736 13.7058 26.4736C13.7388 26.4736 13.7658 26.4586 13.7658 26.4436C13.7658 26.4256 13.7929 26.4136 13.8259 26.4136C13.8589 26.4136 13.8859 26.3986 13.8859 26.3836C13.8859 26.3655 13.9129 26.3535 13.9459 26.3535C13.979 26.3535 14.006 26.3385 14.006 26.3235C14.006 26.3055 14.033 26.2935 14.066 26.2935C14.099 26.2935 14.126 26.2785 14.126 26.2635C14.126 26.2455 14.153 26.2335 14.1831 26.2335C14.2161 26.2335 14.2461 26.2245 14.2521 26.2095C14.2611 26.1915 14.4172 26.1014 14.5973 26.0114C14.6363 25.9934 14.6663 25.9693 14.6663 25.9543C14.6663 25.9423 14.6933 25.9333 14.7263 25.9333C14.7594 25.9333 14.7864 25.9183 14.7864 25.9033C14.7864 25.8853 14.8134 25.8733 14.8464 25.8733C14.8794 25.8733 14.9064 25.8583 14.9064 25.8433C14.9064 25.8253 14.9334 25.8133 14.9665 25.8133C14.9995 25.8133 15.0265 25.7983 15.0265 25.7832C15.0265 25.7652 15.0805 25.7532 15.1466 25.7532C15.2126 25.7532 15.2666 25.7382 15.2666 25.7232C15.2666 25.7052 15.3086 25.6932 15.3567 25.6932C15.4077 25.6932 15.4467 25.7052 15.4467 25.7232C15.4467 25.7382 15.5007 25.7532 15.5668 25.7532C15.6328 25.7532 15.6868 25.7652 15.6868 25.7832C15.6868 25.7983 15.7139 25.8133 15.7469 25.8133C15.7799 25.8133 15.8069 25.8253 15.8069 25.8433C15.8069 25.8583 15.8339 25.8733 15.8669 25.8733C15.8999 25.8733 15.927 25.8853 15.927 25.9033C15.927 25.9183 15.954 25.9333 15.987 25.9333C16.02 25.9333 16.047 25.9453 16.047 25.9633C16.047 25.9783 16.074 25.9934 16.1071 25.9934C16.1401 25.9934 16.1671 26.0024 16.1671 26.0144C16.1671 26.0294 16.1971 26.0534 16.2361 26.0714C16.4162 26.1614 16.5723 26.2515 16.5813 26.2695C16.5873 26.2845 16.6173 26.2935 16.6503 26.2935C16.6804 26.2935 16.7074 26.3055 16.7074 26.3235C16.7074 26.3385 16.7344 26.3535 16.7674 26.3535C16.8004 26.3535 16.8274 26.3655 16.8274 26.3836C16.8274 26.3986 16.8544 26.4136 16.8875 26.4136C16.9205 26.4136 16.9475 26.4256 16.9475 26.4436C16.9475 26.4586 16.9745 26.4736 17.0075 26.4736C17.0405 26.4736 17.0676 26.4856 17.0676 26.5036C17.0676 26.5186 17.0946 26.5336 17.1276 26.5336C17.1606 26.5336 17.1876 26.5456 17.1876 26.5637C17.1876 26.5787 17.2146 26.5937 17.2476 26.5937C17.2807 26.5937 17.3077 26.6027 17.3077 26.6147C17.3077 26.6297 17.3377 26.6537 17.3767 26.6717C17.5568 26.7618 17.7129 26.8518 17.7219 26.8698C17.7279 26.8848 17.7579 26.8938 17.7909 26.8938C17.8209 26.8938 17.848 26.9058 17.848 26.9238C17.848 26.9388 17.875 26.9539 17.908 26.9539C17.941 26.9539 17.968 26.9659 17.968 26.9839C17.968 26.9989 17.995 27.0139 18.028 27.0139C18.0611 27.0139 18.0881 27.0259 18.0881 27.0439C18.0881 27.0589 18.1151 27.0739 18.1481 27.0739C18.1811 27.0739 18.2081 27.0859 18.2081 27.1039C18.2081 27.1189 18.2352 27.1339 18.2682 27.1339C18.3012 27.1339 18.3282 27.146 18.3282 27.164C18.3282 27.179 18.3552 27.194 18.3882 27.194C18.4212 27.194 18.4483 27.203 18.4483 27.215C18.4483 27.23 18.4783 27.254 18.5173 27.272C18.6974 27.3621 18.8535 27.4521 18.8625 27.4701C18.8685 27.4851 18.8985 27.4941 18.9315 27.4941C18.9615 27.4941 18.9885 27.5061 18.9885 27.5241C18.9885 27.5392 19.0156 27.5542 19.0486 27.5542C19.0816 27.5542 19.1086 27.5662 19.1086 27.5842C19.1086 27.5992 19.1356 27.6142 19.1686 27.6142C19.2017 27.6142 19.2287 27.6262 19.2287 27.6442C19.2287 27.6592 19.2557 27.6742 19.2887 27.6742C19.3217 27.6742 19.3487 27.6862 19.3487 27.7042C19.3487 27.7192 19.3757 27.7343 19.4088 27.7343C19.4418 27.7343 19.4688 27.7463 19.4688 27.7643C19.4688 27.7793 19.4958 27.7943 19.5288 27.7943C19.5618 27.7943 19.5889 27.8033 19.5889 27.8153C19.5889 27.8303 19.6189 27.8543 19.6579 27.8723C19.907 27.9984 20.1141 28.1125 20.1231 28.1305C20.1291 28.1455 20.1591 28.1545 20.1922 28.1545C20.2222 28.1545 20.2492 28.1665 20.2492 28.1845C20.2492 28.1995 20.2762 28.2145 20.3092 28.2145C20.3422 28.2145 20.3693 28.2265 20.3693 28.2445C20.3693 28.2595 20.3963 28.2745 20.4293 28.2745C20.4623 28.2745 20.4893 28.2865 20.4893 28.3045C20.4893 28.3196 20.5163 28.3346 20.5493 28.3346C20.5824 28.3346 20.6094 28.3466 20.6094 28.3646C20.6094 28.3796 20.6364 28.3946 20.6664 28.3946C20.6994 28.3946 20.7294 28.4036 20.7354 28.4156C20.7414 28.4306 20.7985 28.4696 20.8645 28.5027C20.9305 28.5387 21.0446 28.5987 21.1196 28.6377C21.1947 28.6767 21.2607 28.7188 21.2637 28.7308C21.2697 28.7458 21.2997 28.7548 21.3328 28.7548C21.3628 28.7548 21.3898 28.7668 21.3898 28.7848C21.3898 28.7998 21.4168 28.8148 21.4498 28.8148C21.4828 28.8148 21.5098 28.8268 21.5098 28.8448C21.5098 28.8598 21.5369 28.8748 21.5699 28.8748C21.6029 28.8748 21.6299 28.8868 21.6299 28.9049C21.6299 28.9199 21.6569 28.9349 21.6899 28.9349C21.7229 28.9349 21.75 28.9469 21.75 28.9649C21.75 28.9799 21.777 28.9949 21.807 28.9949C21.84 28.9949 21.87 29.0039 21.876 29.0159C21.882 29.0309 21.9421 29.0699 22.0141 29.109C22.0831 29.145 22.1972 29.205 22.2692 29.244C22.3383 29.2801 22.4013 29.3191 22.4043 29.3311C22.4103 29.3461 22.4403 29.3551 22.4703 29.3551C22.5004 29.3551 22.5364 29.3671 22.5454 29.3851C22.5544 29.4001 22.5964 29.4151 22.6384 29.4151C22.6774 29.4151 22.7105 29.4271 22.7105 29.4451C22.7105 29.4601 22.7525 29.4752 22.8005 29.4752C22.8515 29.4752 22.8906 29.4872 22.8906 29.5052C22.8906 29.5202 22.9626 29.5352 23.0526 29.5352C23.1427 29.5352 23.2267 29.5502 23.2357 29.5652C23.2597 29.6042 23.752 29.6042 23.776 29.5652C23.785 29.5472 23.8601 29.5352 23.9441 29.5352C24.0251 29.5352 24.0912 29.5202 24.0912 29.5052C24.0912 29.4872 24.1332 29.4752 24.1812 29.4752C24.2322 29.4752 24.2713 29.4601 24.2713 29.4451C24.2713 29.4271 24.3043 29.4151 24.3433 29.4151C24.3853 29.4151 24.4273 29.4001 24.4363 29.3851C24.4454 29.3671 24.4814 29.3551 24.5144 29.3551C24.5444 29.3551 24.5714 29.3401 24.5714 29.3251C24.5714 29.3071 24.5894 29.2951 24.6104 29.2951C24.6315 29.2951 24.6795 29.268 24.7155 29.235C24.7515 29.202 24.7935 29.175 24.8085 29.175C24.8476 29.175 25.3518 28.6707 25.3518 28.6317C25.3518 28.6167 25.3788 28.5747 25.4119 28.5387C25.4449 28.5027 25.4719 28.4546 25.4719 28.4336C25.4719 28.4126 25.4869 28.3946 25.5019 28.3946C25.5199 28.3946 25.5319 28.3676 25.5319 28.3346C25.5319 28.3015 25.5469 28.2745 25.5619 28.2745C25.5799 28.2745 25.5919 28.2415 25.5919 28.2025C25.5919 28.1605 25.607 28.1185 25.622 28.1094C25.64 28.1004 25.652 28.0524 25.652 28.0014C25.652 27.9534 25.667 27.9143 25.682 27.9143C25.7 27.9143 25.712 27.8423 25.712 27.7523C25.712 27.6622 25.727 27.5782 25.742 27.5692C25.76 27.5602 25.772 27.4431 25.772 27.311C25.772 27.173 25.76 27.0739 25.742 27.0739C25.724 27.0739 25.712 26.9899 25.712 26.8818C25.712 26.7738 25.7 26.6777 25.682 26.6687C25.667 26.6597 25.652 26.5787 25.652 26.4886C25.652 26.3986 25.64 26.3175 25.622 26.3085C25.607 26.2995 25.5919 26.2245 25.5919 26.1434C25.5919 26.0624 25.5799 25.9874 25.5619 25.9783C25.5469 25.9693 25.5319 25.8853 25.5319 25.7953C25.5319 25.7052 25.5199 25.6332 25.5019 25.6332C25.4839 25.6332 25.4719 25.5521 25.4719 25.4531C25.4719 25.354 25.4599 25.273 25.4419 25.273C25.4239 25.273 25.4119 25.1919 25.4119 25.0929C25.4119 24.9938 25.3998 24.9128 25.3818 24.9128C25.3668 24.9128 25.3518 24.8408 25.3518 24.7507C25.3518 24.6607 25.3398 24.5766 25.3218 24.5676C25.3068 24.5586 25.2918 24.4776 25.2918 24.3875C25.2918 24.2975 25.2798 24.2164 25.2618 24.2074C25.2468 24.1984 25.2318 24.1234 25.2318 24.0424C25.2318 23.9613 25.2198 23.8863 25.2017 23.8773C25.1867 23.8683 25.1717 23.7842 25.1717 23.6942C25.1717 23.6041 25.1597 23.5321 25.1417 23.5321C25.1237 23.5321 25.1117 23.451 25.1117 23.352C25.1117 23.2529 25.0997 23.1719 25.0817 23.1719C25.0637 23.1719 25.0517 23.0909 25.0517 22.9918C25.0517 22.8928 25.0397 22.8117 25.0217 22.8117C25.0066 22.8117 24.9916 22.7397 24.9916 22.6496C24.9916 22.5596 24.9796 22.4755 24.9616 22.4665C24.9466 22.4575 24.9316 22.3765 24.9316 22.2864C24.9316 22.1964 24.9196 22.1154 24.9016 22.1064C24.8866 22.0973 24.8716 22.0223 24.8716 21.9413C24.8716 21.8602 24.8596 21.7852 24.8416 21.7762C24.8266 21.7672 24.8115 21.6831 24.8115 21.5931C24.8115 21.503 24.7995 21.431 24.7815 21.431C24.7635 21.431 24.7515 21.35 24.7515 21.2509C24.7515 21.1519 24.7395 21.0708 24.7215 21.0708C24.7035 21.0708 24.6915 20.9898 24.6915 20.8907C24.6915 20.7917 24.6795 20.7106 24.6615 20.7106C24.6465 20.7106 24.6315 20.6386 24.6315 20.5486C24.6315 20.4585 24.6194 20.3745 24.6014 20.3655C24.5864 20.3565 24.5714 20.2754 24.5714 20.1854C24.5714 20.0953 24.5594 20.0143 24.5414 20.0053C24.5264 19.9963 24.5114 19.9212 24.5114 19.8402C24.5114 19.7591 24.4994 19.6841 24.4814 19.6751C24.4664 19.6661 24.4514 19.537 24.4514 19.39C24.4514 19.2429 24.4664 19.1138 24.4814 19.1048C24.4994 19.0958 24.5114 19.0598 24.5114 19.0268C24.5114 18.9967 24.5264 18.9697 24.5414 18.9697C24.5594 18.9697 24.5714 18.9487 24.5714 18.9247C24.5714 18.8767 25.5529 17.8832 26.0422 17.4389C26.2133 17.2829 26.7415 16.7696 27.2128 16.2984C27.684 15.8271 28.2243 15.3018 28.4134 15.1278C28.9597 14.6265 30.3944 13.1798 30.3944 13.1317C30.3944 13.1077 30.4064 13.0867 30.4214 13.0867C30.4364 13.0867 30.4545 13.0627 30.4635 13.0327C30.4725 13.0057 30.5025 12.9396 30.5325 12.8916C30.6135 12.7505 30.6345 12.6995 30.6345 12.6545C30.6345 12.6305 30.6526 12.6065 30.6736 12.6005C30.7006 12.5884 30.7096 12.4144 30.7096 11.8561C30.7096 11.2978 30.7006 11.1237 30.6736 11.1147C30.6526 11.1057 30.6345 11.0607 30.6345 11.0126C30.6345 10.9646 30.6225 10.9256 30.6045 10.9256C30.5895 10.9256 30.5745 10.8986 30.5745 10.8656C30.5745 10.8325 30.5625 10.8055 30.5445 10.8055C30.5295 10.8055 30.5145 10.7785 30.5145 10.7455C30.5145 10.7125 30.5025 10.6855 30.4845 10.6855C30.4695 10.6855 30.4545 10.6675 30.4545 10.6464C30.4545 10.6254 30.4304 10.5804 30.4004 10.5474C30.3704 10.5174 30.3134 10.4423 30.2744 10.3853C30.1813 10.2532 30.1063 10.1782 29.9742 10.0852C29.9172 10.0461 29.8421 9.98911 29.8121 9.95909C29.7791 9.92908 29.7341 9.90506 29.7131 9.90506C29.6921 9.90506 29.6741 9.89005 29.6741 9.87505C29.6741 9.85704 29.647 9.84503 29.614 9.84503C29.581 9.84503 29.554 9.83002 29.554 9.81502C29.554 9.79701 29.527 9.785 29.494 9.785C29.4609 9.785 29.4339 9.76999 29.4339 9.75499C29.4339 9.73697 29.3949 9.72497 29.3439 9.72497C29.2959 9.72497 29.2538 9.70996 29.2538 9.69495C29.2538 9.67694 29.2148 9.66494 29.1668 9.66494C29.1158 9.66494 29.0677 9.64993 29.0587 9.63492C29.0497 9.61691 28.9687 9.60491 28.8786 9.60491C28.7886 9.60491 28.7076 9.5899 28.6985 9.57489C28.6895 9.55688 28.5935 9.54488 28.4884 9.54488C28.3834 9.54488 28.2873 9.52987 28.2783 9.51486C28.2693 9.49685 28.1733 9.48485 28.0652 9.48485C27.9572 9.48485 27.8731 9.47284 27.8731 9.45483C27.8731 9.43682 27.7831 9.42481 27.663 9.42481C27.543 9.42481 27.4529 9.41281 27.4529 9.3948C27.4529 9.37679 27.3689 9.36478 27.2608 9.36478C27.1528 9.36478 27.0567 9.34978 27.0477 9.33477C27.0387 9.31676 26.9426 9.30475 26.8376 9.30475C26.7325 9.30475 26.6365 9.28975 26.6275 9.27474C26.6185 9.25673 26.5284 9.24472 26.4324 9.24472C26.3363 9.24472 26.2463 9.22971 26.2373 9.21471C26.2283 9.1967 26.1322 9.18469 26.0272 9.18469C25.9221 9.18469 25.8261 9.16968 25.8171 9.15467C25.8081 9.13667 25.712 9.12466 25.607 9.12466C25.5019 9.12466 25.4058 9.10965 25.3968 9.09464C25.3878 9.07664 25.2918 9.06463 25.1867 9.06463C25.0817 9.06463 24.9856 9.04962 24.9766 9.03461C24.9676 9.0166 24.8716 9.0046 24.7635 9.0046C24.6555 9.0046 24.5714 8.99259 24.5714 8.97458C24.5714 8.95657 24.4814 8.94457 24.3613 8.94457C24.2412 8.94457 24.1512 8.93256 24.1512 8.91455C24.1512 8.89654 24.0612 8.88454 23.9411 8.88454C23.821 8.88454 23.731 8.87253 23.731 8.85452C23.731 8.83651 23.6469 8.8245 23.5389 8.8245C23.4308 8.8245 23.3348 8.8095 23.3258 8.79449C23.3168 8.77648 23.2207 8.76447 23.1157 8.76447C23.0106 8.76447 22.9146 8.74947 22.9056 8.73446C22.8966 8.71645 22.8065 8.70444 22.7105 8.70444C22.6144 8.70444 22.5244 8.68944 22.5154 8.67443C22.5064 8.65642 22.4103 8.64441 22.3053 8.64441C22.2002 8.64441 22.1041 8.6294 22.0951 8.6144C22.0861 8.59639 21.9901 8.58438 21.885 8.58438C21.78 8.58438 21.6839 8.56937 21.6749 8.55437C21.6659 8.53636 21.5819 8.52435 21.4918 8.52435C21.4018 8.52435 21.3297 8.50934 21.3297 8.49434C21.3297 8.47633 21.2907 8.46432 21.2397 8.46432C21.1917 8.46432 21.1497 8.44931 21.1497 8.4343C21.1497 8.41629 21.1316 8.40429 21.1106 8.40429C21.0566 8.40429 20.8195 8.17317 20.7535 8.05911C20.7234 8.00808 20.6634 7.89403 20.6214 7.80398C20.5764 7.71393 20.4353 7.42278 20.3062 7.15865C20.1742 6.89451 20.0691 6.66039 20.0691 6.63938C20.0691 6.62137 20.0571 6.60336 20.0391 6.60336C20.0241 6.60336 20.0091 6.57635 20.0091 6.54333C20.0091 6.51031 19.9971 6.4833 19.9791 6.4833C19.964 6.4833 19.949 6.45628 19.949 6.42327C19.949 6.39025 19.937 6.36324 19.919 6.36324C19.904 6.36324 19.889 6.33622 19.889 6.30321C19.889 6.27019 19.877 6.24317 19.859 6.24317C19.844 6.24317 19.829 6.21616 19.829 6.18314C19.829 6.15013 19.817 6.12311 19.799 6.12311C19.784 6.12311 19.7689 6.0961 19.7689 6.06308C19.7689 6.03006 19.7569 6.00305 19.7389 6.00305C19.7239 6.00305 19.7089 5.97604 19.7089 5.94302C19.7089 5.91 19.6969 5.88299 19.6789 5.88299C19.6639 5.88299 19.6489 5.85597 19.6489 5.82296C19.6489 5.78994 19.6369 5.76293 19.6189 5.76293C19.6039 5.76293 19.5889 5.73591 19.5889 5.7029C19.5889 5.66988 19.5768 5.64286 19.5588 5.64286C19.5438 5.64286 19.5288 5.61585 19.5288 5.58283C19.5288 5.54982 19.5168 5.5228 19.4988 5.5228C19.4838 5.5228 19.4688 5.49579 19.4688 5.46277C19.4688 5.42975 19.4568 5.40274 19.4388 5.40274C19.4238 5.40274 19.4088 5.37573 19.4088 5.34271C19.4088 5.30969 19.3968 5.28268 19.3787 5.28268C19.3637 5.28268 19.3487 5.25566 19.3487 5.22265C19.3487 5.18963 19.3367 5.16262 19.3187 5.16262C19.3037 5.16262 19.2887 5.1356 19.2887 5.10259C19.2887 5.06957 19.2767 5.04255 19.2587 5.04255C19.2437 5.04255 19.2287 5.01554 19.2287 4.98252C19.2287 4.94951 19.2167 4.92249 19.1986 4.92249C19.1836 4.92249 19.1686 4.89548 19.1686 4.86246C19.1686 4.82944 19.1566 4.80243 19.1386 4.80243C19.1236 4.80243 19.1086 4.77542 19.1086 4.7424C19.1086 4.70938 19.0966 4.68237 19.0786 4.68237C19.0636 4.68237 19.0486 4.65536 19.0486 4.62234C19.0486 4.58932 19.0366 4.56231 19.0186 4.56231C19.0035 4.56231 18.9885 4.53529 18.9885 4.50228C18.9885 4.46926 18.9765 4.44225 18.9585 4.44225C18.9435 4.44225 18.9285 4.41523 18.9285 4.38222C18.9285 4.3492 18.9165 4.32218 18.8985 4.32218C18.8835 4.32218 18.8685 4.29517 18.8685 4.26215C18.8685 4.22914 18.8565 4.20212 18.8385 4.20212C18.8235 4.20212 18.8084 4.17511 18.8084 4.14209C18.8084 4.10907 18.7964 4.08206 18.7784 4.08206C18.7634 4.08206 18.7484 4.05505 18.7484 4.02203C18.7484 3.98901 18.7364 3.962 18.7184 3.962C18.7034 3.962 18.6884 3.93498 18.6884 3.90197C18.6884 3.86895 18.6764 3.84194 18.6584 3.84194C18.6434 3.84194 18.6284 3.81492 18.6284 3.7819C18.6284 3.74889 18.6163 3.72187 18.5983 3.72187C18.5833 3.72187 18.5683 3.70387 18.5683 3.68285C18.5683 3.64684 18.5083 3.51777 18.0611 2.6113C17.944 2.37118 17.848 2.15807 17.848 2.13706C17.848 2.11905 17.8359 2.10104 17.8179 2.10104C17.8029 2.10104 17.7879 2.07402 17.7879 2.04101C17.7879 2.00799 17.7759 1.98098 17.7579 1.98098C17.7429 1.98098 17.7279 1.95396 17.7279 1.92095C17.7279 1.88793 17.7159 1.86091 17.6979 1.86091C17.6829 1.86091 17.6679 1.8339 17.6679 1.80088C17.6679 1.76787 17.6559 1.74085 17.6378 1.74085C17.6228 1.74085 17.6078 1.71384 17.6078 1.68082C17.6078 1.6478 17.5958 1.62079 17.5778 1.62079C17.5628 1.62079 17.5478 1.59378 17.5478 1.56076C17.5478 1.52774 17.5358 1.50073 17.5178 1.50073C17.5028 1.50073 17.4878 1.47371 17.4878 1.4407C17.4878 1.40768 17.4758 1.38067 17.4578 1.38067C17.4427 1.38067 17.4277 1.35365 17.4277 1.32064C17.4277 1.28762 17.4157 1.2606 17.3977 1.2606C17.3827 1.2606 17.3677 1.23359 17.3677 1.20057C17.3677 1.16756 17.3557 1.14054 17.3437 1.14054C17.3287 1.14054 17.2987 1.10452 17.2747 1.0565C17.2506 1.01148 17.2086 0.954447 17.1816 0.927433C17.1516 0.900419 17.1276 0.864401 17.1276 0.846392C17.1276 0.801369 16.8034 0.480202 16.7584 0.480202C16.7374 0.480202 16.7014 0.453188 16.6773 0.420172C16.6533 0.387156 16.6173 0.36014 16.5933 0.36014C16.5723 0.36014 16.5273 0.333126 16.4913 0.30011C16.4552 0.267094 16.4012 0.240078 16.3742 0.240078C16.3442 0.240078 16.3112 0.225071 16.3022 0.210064C16.2932 0.192055 16.2571 0.180048 16.2241 0.180048C16.1941 0.180048 16.1671 0.165041 16.1671 0.150032C16.1671 0.132023 16.1281 0.120016 16.08 0.120016C16.029 0.120016 15.981 0.105009 15.972 0.0900021C15.963 0.0719929 15.8789 0.0599861 15.7889 0.0599861C15.6988 0.0599861 15.6268 0.0449791 15.6268 0.0299702C15.6268 0.011961 15.5157 -4.57764e-05 15.3567 -4.57764e-05C15.1976 -4.57764e-05 15.0865 0.011961 15.0865 0.0299702Z" fill="#F4BDE5"/>
</svg>
