<svg width="42" height="42" viewBox="0 0 42 42" fill="none" xmlns="http://www.w3.org/2000/svg">
<path d="M38.4193 0.370788C38.4193 0.370788 42.3046 -1.44721 41.9808 2.96793C41.8729 4.78596 40.9016 11.149 40.1461 18.0314L37.5559 38.4191C37.5559 38.4191 37.3401 41.4057 35.3974 41.9252C33.4547 42.4446 30.5408 40.1072 30.0011 39.5877C29.5694 39.1982 21.9068 33.3546 19.2086 30.4977C18.4531 29.7186 17.5897 28.1603 19.3165 26.3423L30.6487 13.3566C31.9438 11.7983 33.2389 8.16227 27.8426 12.5774L12.7331 24.9139C12.7331 24.9139 11.0063 26.2124 7.76861 25.0437L0.753421 22.4466C0.753421 22.4466 -1.83679 20.4987 2.58815 18.5508C13.3807 12.4475 26.6555 6.21432 38.4193 0.370788Z" fill="#463641"/>
</svg>
