<svg width="30" height="32" viewBox="0 0 30 32" fill="none" xmlns="http://www.w3.org/2000/svg">
<path d="M3.69116 8.96722C4.47517 8.9312 4.96873 9.28499 5.17065 10.0287C5.48927 14.7823 5.81729 19.5354 6.15601 24.2875C6.21864 25.27 6.39601 26.2306 6.68726 27.1694C7.19116 28.3393 8.08862 28.9589 9.37964 29.0278C10.0599 29.1075 10.7425 29.1587 11.4275 29.1801C14.2853 29.2457 17.1421 29.2201 19.9978 29.1039C20.903 29.0738 21.7374 28.8205 22.5007 28.3452C22.9623 27.89 23.2787 27.3461 23.449 26.7143C23.5827 26.1643 23.6833 25.6083 23.7517 25.0463C24.1359 20.0177 24.4904 14.9868 24.8142 9.95355C25.1277 9.10789 25.7217 8.81732 26.5964 9.08148C26.8911 9.24995 27.1061 9.48958 27.241 9.80121C27.0046 15.1422 26.6509 20.4774 26.1794 25.8051C26.0564 27.2359 25.5755 28.5248 24.738 29.6723C23.6536 30.7894 22.3264 31.409 20.7566 31.5307C16.9139 31.7835 13.0709 31.7835 9.22827 31.5307C6.38836 31.2944 4.65663 29.7902 4.03296 27.018C3.75113 25.5394 3.57376 24.048 3.50171 22.5434C3.18835 18.2982 2.93518 14.0506 2.74292 9.80121C2.93535 9.36788 3.25167 9.08994 3.69116 8.96722ZM12.6414 0.0180054C14.6653 -0.00724974 16.6877 0.0301953 18.7087 0.131287C19.9878 0.399567 20.9109 1.11989 21.4773 2.29242C21.6497 2.86017 21.8517 3.41683 22.0837 3.96136C22.4367 4.49053 22.9302 4.80669 23.5632 4.90961C25.4086 4.93486 27.254 4.96053 29.0994 4.98578C29.9018 5.29764 30.1677 5.86607 29.8962 6.69183C29.7198 7.06512 29.429 7.30556 29.0242 7.41254C19.5901 7.48793 10.1597 7.46234 0.734131 7.33636C0.0736572 6.97353 -0.141096 6.42974 0.0895996 5.70551C0.235743 5.33205 0.500981 5.09241 0.885498 4.98578C2.73104 4.96052 4.57709 4.93486 6.42261 4.90961C7.02108 4.81931 7.48836 4.52838 7.82495 4.03754C8.124 3.24148 8.45307 2.45736 8.81128 1.68597C9.78973 0.445519 11.0664 -0.110101 12.6414 0.0180054ZM12.5652 2.51996C12.2508 2.58246 11.9224 2.62092 11.5798 2.63422C11.3353 2.72504 11.1204 2.86409 10.9353 3.05121C10.6948 3.67188 10.4544 4.29148 10.2146 4.90961C13.4 4.96019 16.5858 4.96019 19.7712 4.90961C19.5418 4.34798 19.3261 3.77857 19.1257 3.20258C18.9647 2.91377 18.7249 2.72424 18.406 2.63422C16.4614 2.52803 14.5139 2.48961 12.5652 2.51996Z" fill="black"/>
</svg>
