<svg width="33" height="33" viewBox="0 0 33 33" fill="none" xmlns="http://www.w3.org/2000/svg">
<path d="M23.9023 16.6698C27.8584 16.4887 30.6369 18.1913 32.2373 21.7772C33.4544 25.7393 32.4024 28.9431 29.0811 31.3885C25.8757 33.1749 22.7783 33.0096 19.7891 30.8925C17.2342 28.6659 16.3234 25.8873 17.0576 22.5575C18.1321 19.179 20.4137 17.2163 23.9023 16.6698ZM14.6816 17.9471C15.1077 17.9354 15.5332 17.9469 15.958 17.9823C16.7489 18.2755 17.0215 18.8312 16.7744 19.6493C16.6102 19.9555 16.3616 20.1561 16.0293 20.2518C12.7083 20.2209 9.51616 20.8361 6.45312 22.0966C5.2338 22.6648 4.15769 23.4328 3.22559 24.4012C2.85362 24.8852 2.61751 25.4295 2.5166 26.0331C2.46931 26.8843 2.46931 27.7356 2.5166 28.5868C2.55204 28.6695 2.61075 28.7291 2.69336 28.7645C7.13854 28.7881 11.5841 28.8112 16.0293 28.8348C16.6571 29.0847 16.9287 29.5463 16.8447 30.2186C16.7275 30.7321 16.4086 31.0279 15.8877 31.1053C11.3953 31.1527 6.90256 31.1527 2.41016 31.1053C1.14341 30.8788 0.398573 30.1337 0.175781 28.871C-0.38775 26.022 0.404255 23.6454 2.55176 21.7421C4.37739 20.3565 6.41114 19.3871 8.65234 18.8339C10.6438 18.3417 12.6535 18.0461 14.6816 17.9471ZM24.0449 19.0106C22.3044 19.3312 20.9443 20.2297 19.9658 21.7059C18.7031 24.0966 18.9162 26.3434 20.6045 28.4452C22.7684 30.4937 25.1681 30.8123 27.8037 29.4022C30.0101 27.8197 30.8029 25.7034 30.1807 23.0536C29.1283 20.2266 27.0828 18.879 24.0449 19.0106ZM24.3994 23.4794C25.1844 23.3453 25.6931 23.6526 25.9248 24.4012C25.9721 25.8199 25.9721 27.2394 25.9248 28.6581C25.5912 29.5417 24.9882 29.7894 24.1162 29.4022C23.9082 29.2416 23.7536 29.041 23.6543 28.7997C23.607 27.2865 23.607 25.7729 23.6543 24.2596C23.8215 23.9153 24.0701 23.6552 24.3994 23.4794ZM24.2578 19.7206C25.8344 19.5891 26.4841 20.2984 26.208 21.8485C25.7623 22.6747 25.0884 22.9466 24.1865 22.6639C23.3743 22.2637 23.0786 21.6129 23.2998 20.7128C23.4904 20.2505 23.8102 19.9202 24.2578 19.7206ZM15.1074 0.000854492C19.0049 -0.0436962 21.7826 1.68216 23.4414 5.17859C24.6203 8.48094 24.0769 11.4602 21.8105 14.1161C19.2196 16.605 16.2049 17.3027 12.7666 16.2089C9.71619 14.955 7.931 12.6967 7.41113 9.43445C7.10856 5.86707 8.44451 3.11233 11.4189 1.17078C12.5741 0.513752 13.8037 0.123976 15.1074 0.000854492ZM15.1777 2.34167C12.9389 2.65347 11.2956 3.81195 10.248 5.81726C9.18104 8.49725 9.66587 10.8499 11.7021 12.8749C14.0859 14.7346 16.5688 14.8766 19.1504 13.3007C21.5409 11.3768 22.2386 8.95321 21.2432 6.03015C20.0108 3.52735 17.9886 2.2979 15.1777 2.34167Z" fill="black"/>
</svg>
