<svg width="42" height="42" viewBox="0 0 42 42" fill="none" xmlns="http://www.w3.org/2000/svg">
<path d="M19.8939 0C16.338 0.049001 8.69847 0.602012 4.43029 4.31734C1.26007 7.3274 0.14182 11.7252 0.0255666 17.1801C-0.0906872 22.635 -0.242002 32.8587 10.1507 35.6307H10.1563L10.1489 39.8588C10.1489 39.8588 10.0806 41.5686 11.2745 41.9186C12.7083 42.3421 13.5516 41.0436 14.9282 39.64C15.6792 38.87 16.7218 37.743 17.5061 36.875C24.6105 37.4455 30.0762 36.147 30.7 35.9562C32.1319 35.5152 40.2512 34.5282 41.5724 24.3062C42.938 13.771 40.9081 7.10339 37.2544 4.10033C36.1547 3.13781 31.7075 0.0752515 21.8001 0.0350007C21.8001 0.0350007 21.0712 -0.00875017 19.8865 0.0052501L19.8939 0ZM20.0009 2.96281C21.0066 2.95581 21.6248 2.99256 21.6248 2.99256C30.0061 3.02756 34.0196 5.42161 34.9515 6.22312C38.0424 8.73442 39.6201 14.7423 38.4687 23.5432V23.5467C37.3541 32.0834 30.7664 32.6189 29.5522 32.9882C29.0355 33.1457 24.234 34.2779 18.1981 33.9052C18.1981 33.9052 13.7029 39.0503 12.2986 40.3873C12.0772 40.5973 11.8189 40.6796 11.6491 40.6393C11.4092 40.5816 11.3428 40.3103 11.3446 39.9148L11.3815 32.8832C2.59422 30.5731 3.10537 21.8719 3.20686 17.3166C3.30651 12.7595 4.20886 9.02493 6.89007 6.51363C10.5069 3.41082 16.9912 2.98206 20.0101 2.96106L20.0009 2.96281ZM20.7021 7.5164C20.5591 7.52324 20.4242 7.58173 20.3251 7.67988C20.2261 7.77802 20.1704 7.90838 20.1694 8.04423C20.1685 8.18008 20.2224 8.31112 20.32 8.4105C20.4177 8.50987 20.5518 8.57004 20.6947 8.57867C23.6915 8.59617 26.131 9.51844 28.1276 11.3647C30.1076 13.1953 31.117 15.6838 31.141 18.9494C31.1447 19.2416 31.3993 19.4744 31.7075 19.4744C31.855 19.4725 31.9958 19.4157 32.0994 19.3161C32.203 19.2165 32.2611 19.0823 32.2611 18.9424C32.2352 15.4703 31.1207 12.6493 28.91 10.6052C26.7141 8.57517 23.9406 7.5374 20.7021 7.5164ZM13.3947 8.73267C13.0024 8.68103 12.6031 8.75296 12.258 8.93743L12.2396 8.94093C11.4461 9.37319 10.7338 9.92445 10.1249 10.572L10.1101 10.586C9.61804 11.1506 9.33509 11.7036 9.26128 12.245C9.2469 12.3259 9.24256 12.4081 9.24836 12.49C9.24836 12.7292 9.28835 12.9625 9.36831 13.19L9.3923 13.2075C9.64141 14.0475 10.2651 15.4406 11.6159 17.7646C12.3909 19.1086 13.2822 20.3897 14.2842 21.5902C14.7824 22.1934 15.3175 22.7674 15.8896 23.3122L16.1332 23.5432C16.7064 24.0834 17.3117 24.5909 17.9489 25.0657C19.2157 26.0164 20.5652 26.8635 21.9828 27.598C24.4333 28.8808 25.9059 29.4706 26.7879 29.7086L26.8064 29.7331C27.1277 29.8313 27.4672 29.8641 27.8028 29.8293C28.3761 29.7652 28.9592 29.4968 29.5522 29.0243C29.5596 29.0243 29.5577 29.0208 29.5669 29.0156C30.2497 28.4381 30.8273 27.7556 31.2831 27.0065L31.2886 26.989C31.7038 26.233 31.5654 25.5155 30.9564 25.029C30.9491 25.029 29.6684 24.014 29.0429 23.5765C28.3786 23.1296 27.694 22.7155 26.9891 22.3339C26.048 21.8352 25.0847 22.1484 24.6861 22.6385L23.8613 23.6255C23.4369 24.1207 22.6489 24.056 22.6489 24.056C16.8916 22.663 15.3508 17.1346 15.3508 17.1346C15.3508 17.1346 15.2825 16.3891 15.8084 15.9866L16.8473 15.2026C17.3584 14.8263 17.6888 13.9128 17.161 13.0185C16.7595 12.3474 16.3222 11.6962 15.8508 11.0672C15.3555 10.4521 14.8448 9.84814 14.3192 9.25593C14.0881 8.98087 13.7584 8.7959 13.3929 8.73617L13.3947 8.73267ZM21.6801 10.2727C21.5318 10.2685 21.3879 10.3204 21.2799 10.4169C21.1719 10.5134 21.1088 10.6466 21.1044 10.7872C21.1 10.9278 21.1547 11.0644 21.2564 11.1668C21.3582 11.2692 21.4986 11.329 21.6469 11.3332C23.7875 11.482 25.3689 12.1487 26.5277 13.3458C27.6903 14.5498 28.2439 16.0128 28.1996 17.8434C28.2076 17.9779 28.2689 18.1047 28.3712 18.1983C28.4734 18.2919 28.6092 18.3455 28.7513 18.3484C28.8934 18.3513 29.0314 18.3032 29.1378 18.2138C29.2442 18.1244 29.3111 18.0002 29.3252 17.8661C29.3713 15.8098 28.7089 14.0283 27.3563 12.6265C25.9908 11.209 24.0772 10.4337 21.7281 10.271H21.6838L21.6801 10.2727ZM22.5345 13.1253C22.3924 13.1272 22.2564 13.1801 22.1537 13.2733C22.051 13.3664 21.9893 13.493 21.9809 13.6275C21.9662 13.9198 22.2024 14.17 22.5124 14.1875C23.4775 14.2365 24.127 14.4938 24.5662 14.926C25.0091 15.3548 25.2822 16.0111 25.3338 16.9631C25.3528 17.095 25.4233 17.2154 25.5314 17.3005C25.6394 17.3855 25.7772 17.4291 25.9174 17.4225C26.0577 17.4159 26.1902 17.3596 26.2889 17.2649C26.3875 17.1701 26.4451 17.0437 26.4502 16.9106C26.3949 15.7836 26.0535 14.849 25.38 14.1858C24.7027 13.5243 23.7321 13.1813 22.5751 13.1235H22.5419L22.5345 13.1253Z" fill="black"/>
</svg>
