<svg width="122" height="42" viewBox="0 0 122 42" fill="none" xmlns="http://www.w3.org/2000/svg">
<path d="M43.0957 41.5204L49.2659 0.831299H59.1349L52.9603 41.5204H43.0957Z" fill="#0E4595"/>
<path d="M88.6157 1.70893C86.6606 0.884604 83.5968 0 79.7706 0C70.0186 0 63.1496 5.51859 63.091 13.4279C63.0361 19.2744 67.995 22.536 71.7386 24.4823C75.5802 26.477 76.8715 27.7488 76.853 29.5295C76.8284 32.2571 73.7853 33.5027 70.9484 33.5027C66.9986 33.5027 64.9001 32.886 61.6589 31.3673L60.3869 30.7205L59.002 39.829C61.3071 40.9651 65.5695 41.9489 69.9955 42C80.3698 42 87.1046 36.5444 87.1811 28.0982C87.2179 23.4695 84.5887 19.9472 78.8948 17.0432C75.4453 15.1609 73.3327 13.9049 73.3551 11.9989C73.3551 10.3076 75.1433 8.49914 79.0073 8.49914C82.2342 8.44282 84.5723 9.23368 86.3938 10.058L87.278 10.5275L88.6157 1.70893Z" fill="#0E4595"/>
<path d="M114.012 0.831299H106.386C104.024 0.831299 102.256 1.55586 101.218 4.20551L86.5615 41.494H96.9249C96.9249 41.494 98.6192 36.4805 99.0024 35.3795C100.135 35.3795 110.203 35.397 111.642 35.397C111.937 36.8216 112.842 41.494 112.842 41.494H122L114.012 0.831299ZM101.913 27.105C102.729 24.7607 105.845 15.7307 105.845 15.7307C105.787 15.839 106.655 13.375 107.153 11.8473L107.82 15.3554C107.82 15.3554 109.71 25.0679 110.105 27.1044H101.913V27.105Z" fill="#0E4595"/>
<path d="M0.126075 0.831299L0 1.67771C3.90132 2.73899 7.38576 4.27503 10.4364 6.18584L19.1934 41.4552L29.6353 41.4422L45.1725 0.831299H34.7176L25.0557 28.5783L24.0265 22.9392C23.9783 22.765 23.9259 22.5904 23.8723 22.4155L20.5134 4.26649C19.9162 1.68999 18.1836 0.921089 16.0401 0.831299H0.126075Z" fill="#0E4595"/>
</svg>
