<svg width="75" height="68" viewBox="0 0 75 68" fill="none" xmlns="http://www.w3.org/2000/svg">
<path d="M36.7676 7.76961C37.5354 7.69969 38.2679 7.82178 38.9648 8.13582C43.293 11.1218 46.3204 15.1013 48.0469 20.0743C53.0138 17.669 58.1409 17.2051 63.4277 18.6827C64.1569 19.3735 64.5231 20.2281 64.5264 21.2462C65.1889 25.6142 64.6274 29.8135 62.8418 33.8438C66.0126 35.321 68.8203 37.3229 71.2646 39.8497C72.1049 40.7977 72.8373 41.8231 73.4619 42.9259C73.5829 43.6713 73.534 44.4038 73.3154 45.1231C68.9392 51.5364 62.8356 54.9056 55.0049 55.2305C53.3546 55.128 51.7189 54.9572 50.0977 54.7179C52.3531 58.6549 52.4263 62.6344 50.3174 66.6563C49.9743 67.133 49.5104 67.4016 48.9258 67.462C44.2156 68.1144 40.407 66.5763 37.5 62.8477C34.4089 66.7512 30.4049 68.2406 25.4883 67.3155C25.1772 67.1512 24.9086 66.9314 24.6826 66.6563C22.5743 62.6283 22.6475 58.6489 24.9023 54.7179C15.8364 56.2701 8.39013 53.5112 2.56348 46.4415C1.94576 45.6796 1.53072 44.8252 1.31836 43.878C1.40237 43.1478 1.67095 42.4886 2.12402 41.9005C4.79818 38.3711 8.14292 35.6854 12.1582 33.8438C10.173 29.3115 9.70918 24.6239 10.7666 19.7813C11.1083 18.9517 11.7186 18.439 12.5977 18.2432C17.6145 17.251 22.424 17.8614 27.0264 20.0743C28.7766 14.7571 32.0236 10.6556 36.7676 7.76961ZM37.793 52.3009C37.3342 53.8454 37.2609 55.408 37.5732 56.9884C38.0448 58.7128 38.8261 60.2753 39.917 61.6759C42.1093 64.2294 44.8681 65.279 48.1934 64.8253C49.8441 61.228 49.4291 57.8834 46.9482 54.7911C45.9599 54.757 44.9588 54.7325 43.9453 54.7179C41.6728 54.4345 39.6219 53.6289 37.793 52.3009ZM35.4492 51.129C35.1207 50.9863 34.7789 50.9374 34.4238 50.9825C31.1351 51.5578 28.6693 53.3156 27.0264 56.2559C25.4704 59.0822 25.3972 61.9387 26.8066 64.8253C30.856 65.3396 33.8833 63.8259 35.8887 60.2843C34.5189 57.2879 34.3724 54.2362 35.4492 51.129ZM53.3203 35.1622C50.7551 35.4553 48.3136 36.2122 45.9961 37.4327C45.5133 37.648 45.1226 37.9655 44.8242 38.3848C44.9369 38.7679 44.9858 39.1584 44.9707 39.5567C49.8179 38.2353 53.9439 39.4072 57.3486 43.0723C57.5185 47.0051 55.9805 50.1057 52.7344 52.3741C53.5034 52.4024 54.2603 52.4756 55.0049 52.5938C61.7814 52.271 67.0791 49.3412 70.8984 43.8048C66.6057 37.8011 60.7463 34.9203 53.3203 35.1622ZM30.0293 38.0919C26.456 35.8337 22.5498 34.8571 18.3105 35.1622C12.3192 35.9849 7.58286 38.8656 4.10156 43.8048C4.68363 44.6554 5.294 45.4855 5.93262 46.295C10.4241 50.9006 15.8685 52.9271 22.2656 52.3741C19.0193 50.1049 17.4812 47.0044 17.6514 43.0723C21.0492 39.4086 25.1753 38.2368 30.0293 39.5567C30.0766 39.0496 30.0766 38.5613 30.0293 38.0919ZM47.9004 41.6075C46.7993 41.7555 45.7495 42.0972 44.751 42.6329C44.1658 45.881 42.53 48.4445 39.8438 50.3233C41.6525 51.7279 43.7034 52.3139 45.9961 52.0811C50.803 51.5627 53.7814 48.9747 54.9316 44.3175C52.9809 42.4217 50.6371 41.5183 47.9004 41.6075ZM25.7812 41.6075C23.5875 41.8741 21.6832 42.7773 20.0684 44.3175C20.9293 48.1814 23.273 50.6473 27.0996 51.7149C29.5582 49.4053 32.4879 48.2579 35.8887 48.2725C35.5601 47.2981 35.0963 46.3948 34.4971 45.5626C32.1844 42.9911 29.279 41.6727 25.7812 41.6075ZM37.207 31.6466C33.8621 33.7469 32.3972 36.7743 32.8125 40.7286C35.7174 42.3418 37.6462 44.7343 38.5986 47.9063C40.7695 46.2511 41.9903 44.0538 42.2607 41.3145C42.7299 37.543 41.4848 34.4911 38.5254 32.1593C38.1486 31.8243 37.7092 31.6534 37.207 31.6466ZM37.3535 10.4063C32.6041 13.8472 29.7965 18.486 28.9307 24.3223C28.5261 28.0609 29.2097 31.5766 30.9814 34.8692C32.1693 32.1678 34.098 30.1902 36.7676 28.9366C37.0977 28.7682 37.4395 28.7192 37.793 28.7901C40.6856 29.9737 42.7608 32.0002 44.0186 34.8692C45.7903 31.5766 46.4739 28.0609 46.0693 24.3223C45.2355 18.3522 42.3303 13.7137 37.3535 10.4063ZM16.5527 20.3673C15.449 20.505 14.3259 20.6514 13.1836 20.8067C12.6671 24.0668 12.838 27.2896 13.6963 30.4747C13.9614 31.4491 14.3764 32.328 14.9414 33.1114C19.2164 32.1796 23.4155 32.3994 27.5391 33.7706C26.208 30.2522 25.8662 26.6388 26.5137 22.9307C23.4268 21.2068 20.1065 20.3523 16.5527 20.3673ZM57.2754 20.3673C54.1593 20.5365 51.2295 21.3909 48.4863 22.9307C49.1338 26.6388 48.792 30.2522 47.4609 33.7706C51.5598 32.4002 55.7347 32.1805 59.9854 33.1114C60.1073 33.0627 60.2296 33.0137 60.3516 32.9649C62.0735 29.0651 62.5617 25.0123 61.8164 20.8067C60.3126 20.5715 58.7988 20.425 57.2754 20.3673ZM5.56641 15.0938C6.00856 15.0697 6.44801 15.0941 6.88477 15.1671C7.22381 15.3295 7.44356 15.5982 7.54395 15.9727C7.64159 17.0469 7.6416 18.1213 7.54395 19.1954C6.84403 20.3887 6.01386 20.4864 5.05371 19.4884C4.95605 18.2188 4.95606 16.9493 5.05371 15.6798C5.25518 15.5033 5.42613 15.3079 5.56641 15.0938ZM66.2842 9.67391C67.1685 7.13111 68.9507 6.03249 71.6309 6.37801C73.3518 6.80548 74.4749 7.85529 75 9.52742V11.8712C74.0108 14.3934 72.1554 15.4432 69.4336 15.0206C66.9397 14.1119 65.8898 12.3295 66.2842 9.67391ZM1.17188 12.5304C2.3717 12.3689 3.54357 12.4666 4.6875 12.8233C5.30865 13.647 5.21104 14.3794 4.39453 15.0206C3.125 15.1183 1.85547 15.1183 0.585938 15.0206C0.409431 14.819 0.214077 14.6482 0 14.5079V13.1895C0.301134 12.8161 0.691773 12.5964 1.17188 12.5304ZM8.64258 12.4571C9.57159 12.4328 10.4993 12.4571 11.4258 12.5304C12.5803 12.9612 12.8488 13.7181 12.2314 14.8009C12.1215 14.8925 11.9994 14.9658 11.8652 15.0206C10.5957 15.1183 9.32617 15.1183 8.05664 15.0206C7.51429 14.5232 7.34341 13.9127 7.54395 13.1895C7.8242 12.7823 8.19045 12.5381 8.64258 12.4571ZM6.00586 7.47664C6.75763 7.47326 7.27033 7.81506 7.54395 8.50203C7.56836 9.03909 7.59277 9.5763 7.61719 10.1134C7.97488 11.8765 7.29132 12.6823 5.56641 12.5304C5.33957 12.3525 5.16863 12.1327 5.05371 11.8712C4.95605 10.6505 4.95606 9.42971 5.05371 8.20906C5.31808 7.86841 5.63552 7.62426 6.00586 7.47664ZM70.166 8.94149C68.7418 9.70331 68.4975 10.7532 69.4336 12.0909C70.6085 12.7486 71.5607 12.5287 72.29 11.4317C72.6035 9.71934 71.8956 8.88926 70.166 8.94149ZM51.709 5.57235C53.0335 5.77947 53.4486 6.51189 52.9541 7.76961C52.2462 8.47756 51.538 9.18568 50.8301 9.89363C49.6249 10.4582 48.8924 10.0919 48.6328 8.795C48.7139 8.48604 48.8362 8.19296 48.999 7.9161C49.8042 6.98651 50.7077 6.2052 51.709 5.57235ZM55.3711 5.57235C55.7828 5.62005 56.1735 5.74215 56.543 5.93856L58.5205 7.9161C59.0592 9.6718 58.4488 10.331 56.6895 9.89363C55.9326 9.13679 55.1758 8.37997 54.4189 7.62313C54.0888 6.60886 54.4063 5.92523 55.3711 5.57235ZM49.6582 0.00593889C50.1407 -0.0293636 50.5802 0.0927205 50.9766 0.37215C51.587 0.982502 52.1972 1.59285 52.8076 2.2032C53.5023 3.4011 53.1849 4.18239 51.8555 4.54695C51.592 4.53566 51.3477 4.46241 51.123 4.32723C50.3662 3.57039 49.6094 2.81356 48.8525 2.05672C48.5334 1.13361 48.802 0.449966 49.6582 0.00593889ZM56.9824 0.00593889C58.4975 -0.0674207 59.059 0.61616 58.667 2.05672C57.9102 2.81351 57.1533 3.57044 56.3965 4.32723C54.8703 4.77327 54.211 4.21166 54.4189 2.64266C55.2048 1.6861 56.0593 0.807096 56.9824 0.00593889Z" fill="#D185BD"/>
</svg>
