<svg width="170" height="56" viewBox="0 0 170 56" fill="none" xmlns="http://www.w3.org/2000/svg">
<path fill-rule="evenodd" clip-rule="evenodd" d="M92.0228 36.305C94.78 36.2933 97.538 36.305 100.295 36.3391C106.007 37.1172 108.992 40.3878 109.251 46.1497C109.01 51.8487 106.07 55.1186 100.432 55.9602C97.629 55.9944 94.8258 56.006 92.0228 55.9944V36.305ZM129.83 55.9944C128.918 56.006 128.006 55.9944 127.095 55.9602C126.415 54.4092 125.754 52.8478 125.113 51.2776C121.854 51.1976 118.595 51.1867 115.336 51.2434C114.656 52.7945 113.995 54.3558 113.354 55.9261C112.443 56.017 111.53 56.017 110.618 55.9261C113.51 49.3923 116.381 42.8517 119.233 36.305H121.558C124.315 42.8681 127.073 49.4312 129.83 55.9944ZM39.3802 36.305C40.2928 36.2824 41.2041 36.305 42.1146 36.3733C44.115 41.7032 46.1096 47.036 48.097 52.3714C50.2075 47.0558 52.2814 41.723 54.3187 36.3733C55.1691 36.2831 56.0236 36.2831 56.8822 36.3733C54.343 42.8962 51.7907 49.4141 49.2249 55.9261C48.4347 56.0163 47.6486 56.0163 46.8665 55.9261C44.3643 49.3868 41.8687 42.8462 39.3802 36.305ZM61.3949 53.7386H70.3509V55.9944H59.0013V36.305H61.3949V53.7386ZM79.2386 36.305C79.9919 36.2824 80.7439 36.305 81.4945 36.3733C84.2749 42.8907 87.0548 49.4087 89.8353 55.9261C88.9007 56.017 87.9661 56.017 87.0316 55.9261C86.3637 54.3668 85.7027 52.8061 85.0491 51.2434C81.7902 51.1867 78.5311 51.1976 75.2728 51.2776C74.6049 52.8369 73.9439 54.3975 73.2904 55.9602C72.3791 56.006 71.4672 56.006 70.556 55.9602C73.4602 49.4115 76.3542 42.8599 79.2386 36.305ZM94.4154 38.5608V53.7386C96.2845 53.7502 98.1533 53.7386 100.022 53.7044C104.399 53.0979 106.611 50.5791 106.654 46.1497C106.595 41.6587 104.338 39.1406 99.8851 38.595C98.0624 38.5608 96.2387 38.5492 94.4154 38.5608ZM80.264 39.3811C78.9528 42.5738 77.608 45.7529 76.2298 48.9182C78.8503 48.9524 81.4717 48.964 84.0921 48.9524C82.8513 45.7427 81.5759 42.5518 80.264 39.3811ZM120.258 39.4495C118.976 42.608 117.654 45.7538 116.293 48.885C118.914 48.976 121.535 48.976 124.156 48.885C122.916 45.8626 121.697 42.8311 120.497 39.7923C120.46 39.6378 120.38 39.5226 120.258 39.4495ZM164.355 24.6829C164.515 24.7061 164.675 24.7403 164.833 24.7854C166.345 25.8183 167.837 26.8779 169.311 27.9641C169.508 28.4454 169.428 28.8664 169.072 29.2288C167.704 30.1633 166.337 31.098 164.97 32.0325C164.197 32.3715 163.718 32.132 163.535 31.3147C163.55 31.0269 163.664 30.7867 163.876 30.596C164.469 30.1858 165.061 29.7756 165.654 29.3655C110.618 29.3429 55.5833 29.3197 0.548176 29.2971C0.169424 29.1447 -0.0130562 28.8604 0.00130081 28.4427C-0.0184438 27.9909 0.186583 27.7057 0.616535 27.5882C55.6059 27.5656 110.596 27.5424 165.585 27.5198C165.073 27.1384 164.549 26.774 164.013 26.4261C163.294 25.6699 163.408 25.089 164.355 24.6829ZM39.6536 0.00222316C43.8274 -0.0709293 46.9839 1.66121 49.1224 5.19851C50.4049 7.85175 50.6783 10.6092 49.9427 13.471C48.5138 17.8161 45.5172 20.2194 40.9525 20.6829C37.1924 20.9495 34.1274 19.6393 31.7572 16.7522C29.9755 14.1317 29.3837 11.2602 29.9798 8.13797C30.6607 4.79141 32.5412 2.38676 35.6204 0.925075C36.9193 0.376191 38.2632 0.0685422 39.6536 0.00222316ZM155.125 0.549098C157.518 0.537477 159.911 0.549095 162.304 0.583278C164.113 0.661281 165.628 1.35579 166.85 2.66824C167.965 4.45056 167.988 6.25105 166.918 8.06961C166.25 8.91926 165.395 9.50036 164.355 9.81277C167.101 10.3365 168.536 11.9894 168.661 14.7698C168.628 17.012 167.58 18.5733 165.517 19.4524C164.57 19.8202 163.591 20.0478 162.577 20.136C160.094 20.231 157.61 20.2652 155.125 20.2386V0.549098ZM13.8792 2.7366H4.0345V9.16336H13.1956V11.4192H4.0345V20.2386H1.64193V0.549098H13.8792V2.7366ZM19.4857 17.9827H28.4417V20.2386H17.0247V0.549098H19.4857V17.9827ZM54.4212 0.549098C55.8802 5.95139 57.3506 11.3527 58.8314 16.7522C60.44 11.4019 62.0352 6.04572 63.6165 0.685817C64.0561 0.596269 64.5114 0.550477 64.9837 0.549098C65.4444 0.549782 65.9005 0.572357 66.3509 0.617458C67.9254 6.00269 69.5209 11.3813 71.137 16.7522C72.6404 11.3527 74.1331 5.95136 75.6146 0.549098H78.1449C76.2634 7.07127 74.3597 13.5892 72.4359 20.1018C72.0079 20.1914 71.5636 20.2372 71.1029 20.2386C70.6422 20.2372 70.1978 20.1914 69.7699 20.1018C68.1749 14.6325 66.5787 9.16297 64.9837 3.69363C63.345 9.15269 61.7279 14.6223 60.1302 20.1018C59.7024 20.1914 59.2578 20.2372 58.7972 20.2386C58.3473 20.2379 57.9021 20.2153 57.4632 20.1702C55.5497 13.6317 53.6469 7.09101 51.7552 0.549098H54.4212ZM93.1165 2.7366H83.0667V8.82156H92.4329V11.0774H83.0667V17.9827H93.595V20.2386H80.6741V0.549098H93.1165V2.7366ZM97.1507 0.549098C99.384 0.53748 101.617 0.5491 103.85 0.583278C105.464 0.581911 106.945 1.01521 108.294 1.88211C109.537 2.93358 110.107 4.27892 110.003 5.91629C110.019 8.29167 108.925 9.90977 106.722 10.7698C106.212 10.9599 105.687 11.0965 105.149 11.18C107.004 14.171 108.85 17.1676 110.687 20.1702C109.707 20.2611 108.727 20.2611 107.747 20.1702C106.004 17.2762 104.26 14.3815 102.517 11.4876C101.531 11.4199 100.54 11.3973 99.5433 11.4192V20.2386H97.1507V0.549098ZM124.156 17.9827H133.112V20.2386H121.762V0.549098H124.156V17.9827ZM141.931 0.549098C142.723 0.527241 143.509 0.549787 144.289 0.617458C147.039 7.14302 149.808 13.6604 152.596 20.1702C151.661 20.2611 150.727 20.2611 149.792 20.1702C149.145 18.5925 148.484 17.0202 147.81 15.4534C144.551 15.3625 141.293 15.3625 138.034 15.4534C137.386 17.0311 136.725 18.6034 136.051 20.1702C135.14 20.2611 134.228 20.2611 133.317 20.1702C136.215 13.6385 139.087 7.09857 141.931 0.549098ZM39.3118 2.25808C37.756 2.43172 36.3663 3.0129 35.1419 4.00125C33.078 5.92981 32.1544 8.3121 32.3724 11.1458C32.6746 14.1806 34.1682 16.4028 36.8509 17.8118C39.74 18.9712 42.4291 18.6295 44.9183 16.7864C47.5216 14.2938 48.3527 11.2971 47.4134 7.79617C46.0652 3.99292 43.3646 2.14664 39.3118 2.25808ZM157.518 11.0774V17.9827C159.068 17.9943 160.618 17.9827 162.167 17.9485C163.506 17.8828 164.634 17.3701 165.551 16.4104C166.322 15.1593 166.322 13.9049 165.551 12.6497C164.7 11.6722 163.618 11.1595 162.304 11.1116C160.709 11.0774 159.114 11.0658 157.518 11.0774ZM143.025 3.62527C141.69 6.80769 140.345 9.9868 138.991 13.1624C141.611 13.1966 144.232 13.2082 146.853 13.1966C145.615 9.98547 144.34 6.79466 143.025 3.62527ZM99.5433 2.7366V9.16336C101.094 9.18659 102.644 9.15241 104.192 9.06082C104.782 8.97604 105.353 8.81612 105.902 8.5823C106.64 8.20837 107.13 7.62718 107.371 6.83914C107.685 5.50534 107.332 4.39987 106.312 3.52273C105.378 3.00314 104.375 2.75232 103.303 2.77078C102.05 2.7366 100.797 2.72498 99.5433 2.7366ZM157.518 2.7366V8.82156C158.954 8.83318 160.39 8.82156 161.826 8.78738C162.292 8.74908 162.748 8.65748 163.193 8.51394C164.101 8.17556 164.705 7.54858 165.004 6.63406C165.311 5.50054 165.072 4.50857 164.286 3.65945C163.426 3.06818 162.469 2.77222 161.415 2.77078C160.116 2.73659 158.817 2.72498 157.518 2.7366Z" fill="black"/>
</svg>
