<svg width="62" height="61" viewBox="0 0 62 61" fill="none" xmlns="http://www.w3.org/2000/svg">
<path fill-rule="evenodd" clip-rule="evenodd" d="M52.0098 27.1596C54.5227 24.3358 57.4492 23.7909 60.7891 25.5248C61.3294 25.9852 61.7333 26.5302 62 27.1596V29.3393C59.4046 35.5982 55.6506 41.0679 50.7383 45.7475C47.7905 48.413 44.4401 50.4313 40.6875 51.8022C38.8474 52.1442 36.9905 52.3259 35.1172 52.3471C30.9863 52.1922 26.8691 51.9299 22.7656 51.56C22.1903 51.8927 21.6855 52.3166 21.252 52.8315C21.228 53.8812 20.9455 54.8502 20.4043 55.7377L16.1055 60.0365C15.1048 60.6627 14.0148 60.8647 12.8359 60.642C12.4584 60.5138 12.095 60.3523 11.7461 60.1576C8.00904 56.4609 4.31555 52.7271 0.666016 48.9565C0.440988 48.5855 0.218864 48.222 0 47.8666V45.808C0.186073 45.3964 0.408201 44.9926 0.666016 44.5971C2.09889 43.1642 3.53197 41.7311 4.96484 40.2983C5.25551 40.0486 5.57853 39.8467 5.93359 39.6928C6.74652 39.5831 7.55385 39.462 8.35547 39.3295C11.3471 36.7009 14.3746 34.1175 17.4375 31.5795C19.6529 29.8349 22.1556 29.189 24.9453 29.642C26.7756 30.3756 28.5921 31.1425 30.3945 31.9428C31.2983 32.2798 32.2267 32.522 33.1797 32.6693C36.4086 32.7062 39.6377 32.7868 42.8672 32.9115C44.268 33.0667 45.3983 33.6924 46.2578 34.7885C47.2735 33.9143 48.1818 32.9453 48.9824 31.8822C49.9914 30.3081 51.0008 28.7337 52.0098 27.1596ZM7.02344 42.5385C5.65369 43.9487 4.28115 45.3616 2.90625 46.7768C6.43288 50.4851 10.0255 54.1382 13.6836 57.7358C13.8046 57.8164 13.9259 57.8164 14.0469 57.7358C15.4854 56.3579 16.8579 54.9248 18.1641 53.4369C14.6778 49.7689 11.1256 46.1562 7.50781 42.599C7.35121 42.5397 7.18975 42.5195 7.02344 42.5385ZM59.0938 28.1889C58.448 27.5906 57.681 27.3686 56.793 27.5229C55.8549 27.7406 55.0677 28.225 54.4316 28.976C53.235 30.9793 51.9432 32.917 50.5566 34.7885C49.5408 36.0265 48.3903 37.1165 47.1055 38.058C46.6711 40.6511 45.1372 42.0439 42.5039 42.2358C38.6298 42.3823 34.7547 42.4227 30.8789 42.3568C30.2713 42.0896 29.9886 41.6252 30.0312 40.9643C30.0044 40.3518 30.2467 39.8876 30.7578 39.5717C34.7943 39.4436 38.8309 39.2822 42.8672 39.0873C43.3513 39.0064 43.6945 38.7438 43.8965 38.3002C44.2167 36.6826 43.5506 35.8552 41.8984 35.8178C38.9114 35.7775 35.9245 35.737 32.9375 35.6967C32.4912 35.629 32.0471 35.5482 31.6055 35.4545C29.1503 34.7168 26.7687 33.7883 24.4609 32.6693C24.0657 32.5556 23.6621 32.4951 23.25 32.4877C21.9822 32.5671 20.8116 32.9506 19.7383 33.6381C16.6885 36.1926 13.661 38.7762 10.6562 41.3881L19.4355 50.1674C20.3835 49.1485 21.5541 48.5835 22.9473 48.4721C27.0155 48.8809 31.0924 49.1634 35.1777 49.3197C36.7908 49.2902 38.3853 49.1085 39.9609 48.7748C42.607 47.7753 45.029 46.4029 47.2266 44.6576C52.4548 40.0978 56.4107 34.6079 59.0938 28.1889ZM31 0.0345784C34.2824 -0.225879 36.8456 0.985056 38.6895 3.66739C41.1452 0.42689 44.3542 -0.642773 48.3164 0.458407C52.0151 1.8971 53.9123 4.60155 54.0078 8.57169C53.871 11.5652 53.0031 14.3304 51.4043 16.8666C49.1423 20.3008 46.5588 23.4898 43.6543 26.433C42.2543 27.914 40.7808 29.3068 39.2344 30.6108C38.716 30.7276 38.2314 30.6467 37.7812 30.3686C34.9647 27.6734 32.2803 24.8679 29.7285 21.9525C27.829 19.7284 26.2143 17.3063 24.8848 14.6869C23.5734 12.0264 23.1698 9.24101 23.6738 6.33145C24.8384 2.72348 27.2805 0.624505 31 0.0345784ZM36.0254 5.12052C34.8228 3.56136 33.2284 2.87517 31.2422 3.06192C30.3346 3.22398 29.4869 3.56709 28.6992 4.09122C26.4983 6.01225 25.8726 8.3737 26.8223 11.1752C27.5455 13.308 28.5547 15.2861 29.8496 17.1088C32.5715 20.5987 35.5182 23.9088 38.6895 27.0385C42.4067 23.5254 45.7167 19.6907 48.6191 15.5346C49.9992 13.4326 50.7863 11.1316 50.9805 8.63223C50.91 5.83763 49.5376 4.04139 46.8633 3.24356C44.5979 2.76059 42.7612 3.42661 41.3535 5.24161C40.8138 6.22047 40.2284 7.16925 39.5977 8.08731C38.7804 8.4368 38.0737 8.29543 37.4785 7.66348C37.0248 6.79621 36.5403 5.94837 36.0254 5.12052Z" fill="#D185BD"/>
</svg>
