<svg width="35" height="45" viewBox="0 0 35 45" fill="none" xmlns="http://www.w3.org/2000/svg">
<path opacity="0.964" d="M15.6021 0.0422363C23.2838 -0.402223 29.0625 2.66435 32.939 9.24048C35.4875 14.3697 35.6714 19.5818 33.4907 24.8762C33.1292 25.635 32.7308 26.3708 32.2954 27.0833C28.1873 32.3563 24.0793 37.6295 19.9712 42.9026C18.7297 44.3163 17.2731 44.5773 15.6021 43.6848C15.3721 43.4549 15.1425 43.2243 14.9126 42.9944C11.2864 38.3483 7.63777 33.7194 3.96729 29.1067C-0.13764 23.668 -1.05687 17.7205 1.2085 11.2639C3.89977 4.81657 8.69731 1.07553 15.6021 0.0422363ZM30.8237 11.9075C27.8222 5.67566 22.8405 2.73199 15.8784 3.07739C9.74967 4.10042 5.68659 7.5652 3.69092 13.4709C2.45408 17.8729 3.03707 22.0123 5.43896 25.8879C9.42443 30.9771 13.4105 36.0664 17.396 41.1555C21.1932 36.2852 25.0249 31.4408 28.8921 26.6233C32.2605 22.083 32.9044 17.1778 30.8237 11.9075ZM16.6138 9.05591C20.0528 8.92802 22.6738 10.3077 24.4771 13.1946C25.6569 15.605 25.7493 18.0581 24.7534 20.553C22.8652 24.0494 19.9375 25.567 15.9702 25.1057C12.8344 24.4225 10.7339 22.5678 9.66943 19.5413C8.71335 15.6015 9.89374 12.4892 13.2104 10.2053C14.2848 9.60715 15.4194 9.22413 16.6138 9.05591ZM16.7056 12.0911C13.6815 12.8324 12.2564 14.7644 12.4292 17.886C13.0242 20.5341 14.6793 21.9748 17.395 22.2083C20.8964 21.7425 22.5521 19.7495 22.3618 16.2297C21.5824 13.3627 19.6971 11.983 16.7056 12.0911Z" fill="#463641"/>
</svg>
