<svg width="42" height="42" viewBox="0 0 42 42" fill="none" xmlns="http://www.w3.org/2000/svg">
<path opacity="0.962" fill-rule="evenodd" clip-rule="evenodd" d="M7.99686 0.00894642C9.56603 -0.0722606 10.9371 0.399372 12.1101 1.42386C14.0194 4.03054 15.8933 6.66258 17.7316 9.32001C18.8781 11.3652 18.6953 13.2821 17.1832 15.071C16.4948 15.7279 15.8397 16.4126 15.218 17.1249C17.0851 19.7207 19.2179 22.0941 21.6164 24.2451C22.6172 25.1401 23.6836 25.9465 24.8156 26.6641C25.4722 26.0236 26.1425 25.3998 26.8266 24.7928C28.0924 23.6715 29.5549 23.276 31.2141 23.6061C32.0572 23.9054 32.8494 24.301 33.5906 24.7928C35.6769 26.3062 37.7792 27.7972 39.8977 29.2658C41.2758 30.2839 41.9766 31.6532 42 33.3736C41.892 34.9742 41.3587 36.4195 40.4004 37.7096C38.1987 40.4977 35.3042 41.9278 31.7168 42C28.2748 41.8595 25.0603 40.9314 22.0734 39.2158C14.2801 34.6887 8.0188 28.5879 3.28944 20.9132C2.04227 18.7874 1.09774 16.5357 0.455841 14.1581C-0.23264 11.493 -0.141234 8.84578 0.73006 6.21632C1.60659 3.94101 3.08432 2.16095 5.16327 0.876153C6.07186 0.429332 7.01644 0.14026 7.99686 0.00894642ZM8.17967 3.02135C9.03012 2.96434 9.71566 3.26862 10.2363 3.9342C11.7069 6.04979 13.1998 8.14937 14.7152 10.2329C15.0481 10.7456 15.3071 11.2933 15.4922 11.876C15.43 12.0941 15.3538 12.307 15.2637 12.515C14.4139 13.516 13.5302 14.4897 12.6129 15.4361C11.9773 16.7811 12.0993 18.0591 12.9785 19.2701C15.869 23.2219 19.3273 26.5842 23.3531 29.357C24.572 29.9739 25.7298 29.8826 26.8266 29.0832C27.4968 28.4138 28.1672 27.7443 28.8375 27.0749C29.1422 26.8923 29.4469 26.7098 29.7516 26.5272C29.9953 26.4663 30.239 26.4663 30.4828 26.5272C30.8935 26.717 31.2896 26.93 31.6711 27.1662C33.7573 28.6796 35.8597 30.1706 37.9781 31.6392C38.8435 32.2225 39.1329 33.0288 38.8465 34.0582C37.7427 36.8698 35.686 38.4673 32.6766 38.8507C30.2015 39.1414 27.8554 38.7154 25.6383 37.5727C22.7692 36.255 20.1184 34.6119 17.6859 32.6433C12.4445 28.5096 8.22455 23.5345 5.02616 17.7182C3.80056 15.4161 3.11501 12.9667 2.96951 10.3698C3.02986 7.60193 4.1572 5.38066 6.35155 3.70599C6.93518 3.37521 7.54458 3.147 8.17967 3.02135Z" fill="#463641"/>
</svg>
