<svg width="63" height="45" viewBox="0 0 63 45" fill="none" xmlns="http://www.w3.org/2000/svg">
<path d="M30.3797 0.00803471C33.2793 -0.013593 36.179 0.00855542 39.0779 0.0734644C41.5953 0.730174 43.2181 2.30956 43.9461 4.81175C44.121 6.6677 44.1855 8.52834 44.1404 10.3938C46.4343 10.3721 48.7282 10.3933 51.0213 10.4582C52.5117 10.8029 53.7445 11.5608 54.7205 12.7307C56.7976 15.8463 58.8749 18.9618 60.952 22.0774C61.5643 23.1785 61.9976 24.3467 62.2508 25.5823C62.3374 29.7797 62.3374 33.9776 62.2508 38.175C62.0129 38.7591 61.6015 39.1705 61.0174 39.4084C59.2848 39.4301 57.5533 39.4946 55.824 39.6028C54.289 43.4 51.4766 45.0662 47.3865 44.6008C44.6185 43.9097 42.7569 42.2223 41.8035 39.5383C37.4758 39.4302 33.1485 39.4513 28.8221 39.6028C27.287 43.4002 24.4739 45.0663 20.3836 44.6008C17.6158 43.9096 15.7549 42.2221 14.8016 39.5383C13.5467 39.4951 12.2918 39.4516 11.0369 39.4084C8.3472 38.7092 6.72438 36.9997 6.16876 34.2805C6.08221 30.9485 6.08222 27.6164 6.16876 24.2844C6.81149 22.8681 7.87184 22.4569 9.34943 23.051C9.82895 23.3998 10.1535 23.8544 10.3231 24.4143C10.3663 27.5298 10.4097 30.6454 10.4529 33.761C10.6354 34.4195 11.0466 34.8741 11.6863 35.1242C12.7205 35.3392 13.7589 35.3604 14.8016 35.1887C16.4821 31.1892 19.4685 29.5664 23.7596 30.3205C26.2313 31.1263 27.9187 32.7493 28.8221 35.1887C32.499 35.3185 36.1772 35.3618 39.8563 35.3186C39.9196 25.3604 39.8551 15.4078 39.6619 5.46116C39.2607 4.70874 38.6335 4.29746 37.7801 4.22776C35.3135 4.18453 32.8462 4.14111 30.3797 4.09788C29.2139 3.51726 28.8026 2.58659 29.1463 1.30686C29.4088 0.720135 29.8201 0.286717 30.3797 0.00803471ZM24.7332 36.6174C24.06 34.8629 22.783 34.1271 20.9031 34.4104C19.2803 35.1461 18.6099 36.401 18.8914 38.175C19.5267 39.9099 20.7597 40.6236 22.5906 40.3166C24.3256 39.6814 25.0402 38.4484 24.7332 36.6174ZM51.7352 36.6174C51.0619 34.8629 49.785 34.1271 47.9051 34.4104C46.2824 35.1461 45.6118 36.4011 45.8934 38.175C46.5287 39.91 47.7624 40.6238 49.5936 40.3166C51.3282 39.6813 52.0421 38.4482 51.7352 36.6174ZM44.1404 24.9338C44.1188 27.1843 44.141 29.4342 44.2059 31.6838C45.1556 30.9603 46.2159 30.4623 47.3865 30.1907C51.4765 29.7253 54.289 31.3916 55.824 35.1887C56.5981 35.318 57.3773 35.3613 58.1609 35.3186C58.1826 32.5489 58.1614 29.7791 58.0965 27.01C58.0113 26.3013 57.8592 25.6093 57.6414 24.9338H44.1404ZM44.1404 14.5481V20.7795C47.6898 20.8227 51.2387 20.7795 54.7859 20.6496C53.5637 18.7137 52.2655 16.8309 50.8914 15.0022C50.5725 14.7994 50.2257 14.6694 49.8524 14.6125C47.949 14.5476 46.0447 14.5264 44.1404 14.5481ZM9.60919 16.6252C12.2059 16.6035 14.8023 16.6248 17.3983 16.6897C18.5642 17.2703 18.9754 18.2009 18.6317 19.4807C18.3937 20.0648 17.9824 20.4761 17.3983 20.7141C14.8019 20.8007 12.2056 20.8007 9.60919 20.7141C8.70227 20.3497 8.26983 19.6794 8.31134 18.7024C8.28565 17.7138 8.71808 17.0213 9.60919 16.6252ZM5.4549 8.31663C10.8209 8.29495 16.1869 8.31715 21.5526 8.38206C22.7183 8.96274 23.1298 9.89318 22.7859 11.1731C22.548 11.757 22.1365 12.1676 21.5526 12.4055C16.1868 12.4921 10.8207 12.4921 5.4549 12.4055C4.54802 12.0411 4.11547 11.3708 4.15704 10.3938C4.13136 9.40523 4.56378 8.7127 5.4549 8.31663ZM1.3006 0.00803471C9.43598 -0.0136059 17.5717 0.00855543 25.7068 0.0734644C26.8726 0.654164 27.2841 1.58456 26.9402 2.86448C26.7023 3.4486 26.2909 3.85991 25.7068 4.09788C17.5715 4.18447 9.43586 4.18447 1.3006 4.09788C0.393596 3.73347 -0.0388333 3.0623 0.00274658 2.08518C-0.0228668 1.09671 0.409541 0.404118 1.3006 0.00803471Z" fill="#D185BD"/>
</svg>
