<svg width="180" height="77" viewBox="0 0 180 77" fill="none" xmlns="http://www.w3.org/2000/svg">
<path d="M97.7729 49.92C100.702 49.9041 103.633 49.9209 106.562 49.9679C112.63 51.0378 115.802 55.5346 116.078 63.4572C115.821 71.2935 112.697 75.7902 106.706 76.9474C103.729 76.9944 100.751 77.0102 97.7729 76.9943V49.92ZM137.942 76.9943C136.973 77.0102 136.004 76.9944 135.036 76.9474C134.313 74.8144 133.61 72.6672 132.929 70.5079C129.467 70.398 126.005 70.383 122.542 70.4611C121.82 72.5941 121.117 74.7412 120.436 76.9005C119.468 77.0255 118.499 77.0255 117.531 76.9005C120.602 67.9164 123.653 58.923 126.683 49.921H129.152C132.081 58.9455 135.012 67.9698 137.942 76.9943ZM65.2309 73.8917H74.7465V76.9943H62.6889V49.921H65.2309V73.8917ZM84.1889 49.92C84.9893 49.889 85.7888 49.9208 86.5863 50.0148C89.5405 58.9763 92.4935 67.939 95.4477 76.9005C94.4549 77.0255 93.4629 77.0255 92.4701 76.9005C91.7605 74.7563 91.0581 72.61 90.3637 70.4611C86.901 70.383 83.4379 70.398 79.976 70.5079C79.2663 72.6522 78.5639 74.7985 77.8695 76.9474C76.9014 77.0104 75.9324 77.0104 74.9643 76.9474C78.0499 67.9425 81.1243 58.9334 84.1889 49.92ZM41.8412 49.92C42.8109 49.889 43.779 49.9208 44.7465 50.0148C46.8719 57.3434 48.9914 64.6757 51.1029 72.0118C53.3452 64.703 55.5478 57.3706 57.7123 50.0148C58.6159 49.8907 59.5246 49.8907 60.4369 50.0148C57.7392 58.9839 55.0273 67.9465 52.3012 76.9005C51.4616 77.0246 50.6262 77.0246 49.7953 76.9005C47.1368 67.9088 44.4852 58.9146 41.8412 49.92ZM100.315 53.0226V73.8917C102.301 73.9077 104.286 73.8919 106.271 73.8449C110.922 73.011 113.271 69.5478 113.317 63.4572C113.254 57.282 110.857 53.8196 106.125 53.0695C104.189 53.0225 102.252 53.0066 100.315 53.0226ZM85.2787 54.1505C83.8855 58.5406 82.4579 62.9123 80.9936 67.2648C83.7775 67.3118 86.5622 67.3276 89.3461 67.3117C88.0277 62.8981 86.6726 58.5105 85.2787 54.1505ZM127.772 54.2452C126.409 58.5882 125.004 62.9125 123.559 67.2179C126.343 67.3429 129.128 67.3429 131.913 67.2179C130.596 63.0619 129.301 58.8935 128.027 54.715C127.987 54.5025 127.901 54.3458 127.772 54.2452ZM174.623 33.9396C174.794 33.9715 174.964 34.0183 175.131 34.0802C176.737 35.5006 178.323 36.9585 179.889 38.4523C180.098 39.1139 180.014 39.6924 179.635 40.1906C178.182 41.4756 176.73 42.76 175.277 44.045C174.455 44.5113 173.947 44.182 173.751 43.0577C173.768 42.6623 173.89 42.3336 174.115 42.0714C174.744 41.5074 175.374 40.9431 176.003 40.379C117.53 40.348 59.0559 40.3163 0.582428 40.2853C0.180196 40.0756 -0.0138773 39.6838 0.00137327 39.1095C-0.0195626 38.4884 0.198896 38.0963 0.65567 37.9347C59.0804 37.9037 117.506 37.872 175.931 37.8409C175.387 37.3164 174.83 36.8155 174.26 36.337C173.496 35.2973 173.617 34.498 174.623 33.9396ZM42.1313 0.00305721C46.5657 -0.0975276 49.9197 2.28388 52.1918 7.14759C53.5545 10.796 53.8455 14.5875 53.0639 18.5226C51.5458 24.4975 48.362 27.8031 43.5121 28.4406C39.5171 28.8072 36.26 27.0051 33.7416 23.0353C31.8487 19.432 31.2205 15.4828 31.8539 11.1896C32.5774 6.58829 34.5747 3.28237 37.8461 1.27259C39.2261 0.517796 40.654 0.0943016 42.1313 0.00305721ZM164.817 0.75501C167.359 0.739029 169.901 0.754883 172.444 0.801885C174.366 0.909045 175.975 1.8644 177.274 3.66907C178.459 6.11977 178.483 8.59531 177.347 11.0958C176.637 12.2643 175.728 13.0637 174.622 13.4933C177.54 14.2134 179.066 16.4855 179.199 20.3087C179.163 23.392 178.05 25.5393 175.858 26.7482C174.852 27.2538 173.811 27.5663 172.735 27.6876C170.097 27.8183 167.457 27.8659 164.817 27.8292V0.75501ZM14.7475 3.76282H4.28751V12.5997H14.0209V15.7023H4.28751V27.8292H1.74551V0.75501H14.7475V3.76282ZM20.7035 24.7267H30.2191V27.8292H18.0893V0.75501H20.7035V24.7267ZM57.8217 0.75501C59.3718 8.18331 60.9339 15.6098 62.5072 23.0343C64.2164 15.6776 65.9121 8.31339 67.5922 0.943487C68.0591 0.8204 68.5426 0.756911 69.0443 0.75501C69.5339 0.75595 70.0188 0.786716 70.4975 0.84876C72.1703 8.25359 73.8653 15.6492 75.5824 23.0343C77.1797 15.6098 78.7662 8.18328 80.3402 0.75501H83.0277C81.0288 9.72316 79.0063 18.6858 76.9623 27.6408C76.5076 27.7639 76.0349 27.8273 75.5453 27.8292C75.0559 27.8273 74.5839 27.7639 74.1293 27.6408C72.4347 20.1203 70.739 12.5997 69.0443 5.07923C67.3032 12.5856 65.5847 20.1062 63.8871 27.6408C63.4325 27.7639 62.9605 27.8273 62.4711 27.8292C61.9931 27.8283 61.5204 27.7965 61.0541 27.7345C59.021 18.7439 56.9995 9.75031 54.9897 0.75501H57.8217ZM98.935 3.76282H88.2572V12.13H98.2084V15.2316H88.2572V24.7267H99.4438V27.8292H85.7152V0.75501H98.935V3.76282ZM103.221 0.75501C105.594 0.739035 107.967 0.754886 110.339 0.801885C112.054 0.800038 113.628 1.39605 115.061 2.58802C116.381 4.03383 116.987 5.88345 116.876 8.13489C116.893 11.4014 115.731 13.6261 113.39 14.8087C112.848 15.0701 112.291 15.2585 111.719 15.3732C113.69 19.4858 115.651 23.6059 117.603 27.7345C116.562 27.8595 115.521 27.8595 114.48 27.7345C112.628 23.7553 110.775 19.7752 108.922 15.796C107.875 15.703 106.822 15.6722 105.763 15.7023V27.8292H103.221V0.75501ZM131.913 24.7267H141.428V27.8292H129.371V0.75501H131.913V24.7267ZM150.798 0.75501C151.639 0.724931 152.475 0.755714 153.304 0.84876C156.226 9.82147 159.167 18.7834 162.129 27.7345C161.137 27.8595 160.145 27.8595 159.152 27.7345C158.464 25.565 157.761 23.4027 157.045 21.2482C153.583 21.1231 150.12 21.1231 146.658 21.2482C145.97 23.4177 145.267 25.58 144.551 27.7345C143.583 27.8595 142.614 27.8595 141.646 27.7345C144.726 18.7533 147.777 9.76067 150.798 0.75501ZM41.769 3.1056C40.1157 3.34437 38.6383 4.14373 37.3373 5.50306C35.1446 8.1549 34.1642 11.4299 34.3959 15.3263C34.717 19.4992 36.3034 22.5548 39.1537 24.4923C42.2233 26.0865 45.0804 25.6164 47.725 23.0822C50.4911 19.6547 51.3744 15.5339 50.3764 10.7199C48.944 5.49051 46.0747 2.95254 41.769 3.1056ZM167.359 15.2325V24.7267C169.005 24.7427 170.652 24.7268 172.298 24.6798C173.721 24.5896 174.92 23.8844 175.894 22.5646C176.713 20.8444 176.712 19.1205 175.894 17.3947C174.99 16.0504 173.84 15.3452 172.444 15.2794C170.749 15.2324 169.054 15.2166 167.359 15.2325ZM151.96 4.98548C150.542 9.36144 149.114 13.7332 147.675 18.0997C150.459 18.1467 153.244 18.1626 156.028 18.1466C154.713 13.7311 153.358 9.3436 151.96 4.98548ZM105.763 3.7638V12.5997C107.411 12.6317 109.058 12.5851 110.703 12.4591C111.33 12.3425 111.936 12.1223 112.518 11.8009C113.302 11.2867 113.823 10.4873 114.079 9.40345C114.413 7.5697 114.039 6.05084 112.954 4.84485C111.962 4.13045 110.897 3.78533 109.758 3.81067C108.427 3.76367 107.095 3.74782 105.763 3.7638ZM167.359 3.7638V12.13C168.884 12.146 170.41 12.1301 171.935 12.0831C172.43 12.0305 172.915 11.9046 173.388 11.7072C174.353 11.2419 174.995 10.3798 175.313 9.1222C175.639 7.56358 175.385 6.19991 174.55 5.03235C173.636 4.21926 172.619 3.81255 171.499 3.81067C170.119 3.76367 168.739 3.74782 167.359 3.7638Z" fill="white"/>
</svg>
